<svg width="309" height="315" viewBox="0 0 309 315" fill="none" xmlns="http://www.w3.org/2000/svg">
<path d="M272.134 26.0089H193.831C193.831 26.0089 201.592 4.79797 213.545 4.79797C225.497 4.79797 229.228 19.4376 229.228 19.4376C229.228 19.4376 237.289 11.4844 243.914 11.4844C250.539 11.4844 256.297 21.9939 256.297 21.9939C256.297 21.9939 265.655 16.3438 272.134 26.0089Z" fill="#EBEBEB"/>
<path opacity="0.5" d="M308.606 48.64H272.034C272.034 48.64 280.202 36.7947 286.658 36.7947C293.114 36.7947 295.003 44.6941 295.003 44.6941C295.003 44.6941 299.547 41.0016 303.762 41.6234C307.977 42.2452 308.606 48.64 308.606 48.64Z" fill="#EBEBEB"/>
<path opacity="0.5" d="M234.41 92.7123H197.815C197.815 92.7123 205.991 80.8671 212.439 80.8671C218.888 80.8671 220.784 88.7588 220.784 88.7588C220.784 88.7588 225.328 85.0739 229.543 85.7341C233.758 86.3943 234.41 92.7123 234.41 92.7123Z" fill="#EBEBEB"/>
<path d="M71.2558 101.817H0C0 101.817 9.73414 80.0226 20.1745 78.6331C30.6149 77.2436 35.6125 94.8234 35.6125 94.8234C35.6125 94.8234 42.3527 88.6206 47.6497 88.6206C52.9467 88.6206 57.0307 96.7887 57.0307 96.7887C57.0307 96.7887 67.6246 91.223 71.2558 101.817Z" fill="#EBEBEB"/>
<path opacity="0.5" d="M103.813 37.7697H55.6565C55.6565 37.7697 63.932 21.9786 72.9292 21.7483C81.9264 21.518 86.5939 33.701 86.5939 33.701C86.5939 33.701 100.566 22.5006 103.813 37.7697Z" fill="#EBEBEB"/>
<path d="M181.179 112.887H152.56V262.922H181.179V112.887Z" fill="#DBDBDB"/>
<path d="M162.571 117.762H157.005V123.488H162.571V117.762Z" fill="#EBEBEB"/>
<path d="M169.687 117.762H164.122V123.488H169.687V117.762Z" fill="#EBEBEB"/>
<path d="M162.571 127.488H157.005V133.215H162.571V127.488Z" fill="#EBEBEB"/>
<path d="M169.687 127.488H164.122V133.215H169.687V127.488Z" fill="#EBEBEB"/>
<path d="M162.571 137.215H157.005V142.941H162.571V137.215Z" fill="#EBEBEB"/>
<path d="M169.687 137.215H164.122V142.941H169.687V137.215Z" fill="#EBEBEB"/>
<path d="M162.571 146.941H157.005V152.668H162.571V146.941Z" fill="#EBEBEB"/>
<path d="M169.687 146.941H164.122V152.668H169.687V146.941Z" fill="#EBEBEB"/>
<path d="M162.571 156.667H157.005V162.394H162.571V156.667Z" fill="#EBEBEB"/>
<path d="M169.687 156.667H164.122V162.394H169.687V156.667Z" fill="#EBEBEB"/>
<path d="M162.571 166.394H157.005V172.121H162.571V166.394Z" fill="#EBEBEB"/>
<path d="M169.687 166.394H164.122V172.121H169.687V166.394Z" fill="#EBEBEB"/>
<path d="M162.571 176.12H157.005V181.847H162.571V176.12Z" fill="#EBEBEB"/>
<path d="M169.687 176.12H164.122V181.847H169.687V176.12Z" fill="#EBEBEB"/>
<path d="M162.571 185.847H157.005V191.574H162.571V185.847Z" fill="#EBEBEB"/>
<path d="M169.687 185.847H164.122V191.574H169.687V185.847Z" fill="#EBEBEB"/>
<path d="M162.571 195.573H157.005V201.3H162.571V195.573Z" fill="#EBEBEB"/>
<path d="M169.687 195.573H164.122V201.3H169.687V195.573Z" fill="#EBEBEB"/>
<path d="M162.571 205.3H157.005V211.027H162.571V205.3Z" fill="#EBEBEB"/>
<path d="M169.687 205.3H164.122V211.027H169.687V205.3Z" fill="#EBEBEB"/>
<path d="M162.571 215.026H157.005V220.753H162.571V215.026Z" fill="#EBEBEB"/>
<path d="M169.687 215.026H164.122V220.753H169.687V215.026Z" fill="#EBEBEB"/>
<path d="M162.571 224.753H157.005V230.48H162.571V224.753Z" fill="#EBEBEB"/>
<path d="M169.687 224.753H164.122V230.48H169.687V224.753Z" fill="#EBEBEB"/>
<path d="M162.571 234.479H157.005V240.206H162.571V234.479Z" fill="#EBEBEB"/>
<path d="M169.687 234.479H164.122V240.206H169.687V234.479Z" fill="#EBEBEB"/>
<path d="M162.571 244.206H157.005V249.933H162.571V244.206Z" fill="#EBEBEB"/>
<path d="M171.169 249.925H176.734V244.198H171.169V249.925Z" fill="#EBEBEB"/>
<path d="M171.169 240.198H176.734V234.471H171.169V240.198Z" fill="#EBEBEB"/>
<path d="M171.169 230.472H176.734V224.745H171.169V230.472Z" fill="#EBEBEB"/>
<path d="M171.169 220.753H176.734V215.026H171.169V220.753Z" fill="#EBEBEB"/>
<path d="M171.169 211.027H176.734V205.3H171.169V211.027Z" fill="#EBEBEB"/>
<path d="M171.169 201.3H176.734V195.573H171.169V201.3Z" fill="#EBEBEB"/>
<path d="M171.169 191.574H176.734V185.847H171.169V191.574Z" fill="#EBEBEB"/>
<path d="M171.169 181.847H176.734V176.12H171.169V181.847Z" fill="#EBEBEB"/>
<path d="M171.169 172.121H176.734V166.394H171.169V172.121Z" fill="#EBEBEB"/>
<path d="M171.169 162.394H176.734V156.667H171.169V162.394Z" fill="#EBEBEB"/>
<path d="M171.169 152.668H176.734V146.941H171.169V152.668Z" fill="#EBEBEB"/>
<path d="M171.169 142.941H176.734V137.215H171.169V142.941Z" fill="#EBEBEB"/>
<path d="M171.169 133.215H176.734V127.488H171.169V133.215Z" fill="#EBEBEB"/>
<path d="M171.169 123.488H176.734V117.762H171.169V123.488Z" fill="#EBEBEB"/>
<path d="M169.687 244.206H164.122V249.933H169.687V244.206Z" fill="#EBEBEB"/>
<path d="M203.749 112.887H181.179V262.922H203.749V112.887Z" fill="#A6A6A6"/>
<path d="M196.825 249.925H201.423V244.198H196.825V249.925Z" fill="#C7C7C7"/>
<path d="M190.952 249.925H195.543V244.198H190.952V249.925Z" fill="#C7C7C7"/>
<path d="M196.825 240.198H201.423V234.471H196.825V240.198Z" fill="#C7C7C7"/>
<path d="M190.952 240.198H195.543V234.471H190.952V240.198Z" fill="#C7C7C7"/>
<path d="M196.825 230.472H201.423V224.745H196.825V230.472Z" fill="#C7C7C7"/>
<path d="M190.952 230.472H195.543V224.745H190.952V230.472Z" fill="#C7C7C7"/>
<path d="M196.825 220.753H201.423V215.026H196.825V220.753Z" fill="#C7C7C7"/>
<path d="M190.952 220.753H195.543V215.026H190.952V220.753Z" fill="#C7C7C7"/>
<path d="M196.825 211.027H201.423V205.3H196.825V211.027Z" fill="#C7C7C7"/>
<path d="M190.952 211.027H195.543V205.3H190.952V211.027Z" fill="#C7C7C7"/>
<path d="M196.825 201.3H201.423V195.573H196.825V201.3Z" fill="#C7C7C7"/>
<path d="M190.952 201.3H195.543V195.573H190.952V201.3Z" fill="#C7C7C7"/>
<path d="M196.825 191.574H201.423V185.847H196.825V191.574Z" fill="#C7C7C7"/>
<path d="M190.952 191.574H195.543V185.847H190.952V191.574Z" fill="#C7C7C7"/>
<path d="M196.825 181.847H201.423V176.12H196.825V181.847Z" fill="#C7C7C7"/>
<path d="M190.952 181.847H195.543V176.12H190.952V181.847Z" fill="#C7C7C7"/>
<path d="M196.825 172.121H201.423V166.394H196.825V172.121Z" fill="#C7C7C7"/>
<path d="M190.952 172.121H195.543V166.394H190.952V172.121Z" fill="#C7C7C7"/>
<path d="M196.825 162.394H201.423V156.667H196.825V162.394Z" fill="#C7C7C7"/>
<path d="M190.952 162.394H195.543V156.667H190.952V162.394Z" fill="#C7C7C7"/>
<path d="M196.825 152.668H201.423V146.941H196.825V152.668Z" fill="#C7C7C7"/>
<path d="M190.952 152.668H195.543V146.941H190.952V152.668Z" fill="#C7C7C7"/>
<path d="M196.825 142.941H201.423V137.215H196.825V142.941Z" fill="#C7C7C7"/>
<path d="M190.952 142.941H195.543V137.215H190.952V142.941Z" fill="#C7C7C7"/>
<path d="M196.825 133.215H201.423V127.488H196.825V133.215Z" fill="#C7C7C7"/>
<path d="M190.952 133.215H195.543V127.488H190.952V133.215Z" fill="#C7C7C7"/>
<path d="M196.825 123.488H201.423V117.762H196.825V123.488Z" fill="#C7C7C7"/>
<path d="M189.716 117.762H185.125V123.488H189.716V117.762Z" fill="#C7C7C7"/>
<path d="M189.716 127.488H185.125V133.215H189.716V127.488Z" fill="#C7C7C7"/>
<path d="M189.716 137.215H185.125V142.941H189.716V137.215Z" fill="#C7C7C7"/>
<path d="M189.716 146.941H185.125V152.668H189.716V146.941Z" fill="#C7C7C7"/>
<path d="M189.716 156.667H185.125V162.394H189.716V156.667Z" fill="#C7C7C7"/>
<path d="M189.716 166.394H185.125V172.121H189.716V166.394Z" fill="#C7C7C7"/>
<path d="M189.716 176.12H185.125V181.847H189.716V176.12Z" fill="#C7C7C7"/>
<path d="M189.716 185.847H185.125V191.574H189.716V185.847Z" fill="#C7C7C7"/>
<path d="M189.716 195.573H185.125V201.3H189.716V195.573Z" fill="#C7C7C7"/>
<path d="M189.716 205.3H185.125V211.027H189.716V205.3Z" fill="#C7C7C7"/>
<path d="M189.716 215.026H185.125V220.753H189.716V215.026Z" fill="#C7C7C7"/>
<path d="M189.716 224.753H185.125V230.48H189.716V224.753Z" fill="#C7C7C7"/>
<path d="M189.716 234.479H185.125V240.206H189.716V234.479Z" fill="#C7C7C7"/>
<path d="M189.716 244.206H185.125V249.933H189.716V244.206Z" fill="#C7C7C7"/>
<path d="M190.952 123.488H195.543V117.762H190.952V123.488Z" fill="#C7C7C7"/>
<path d="M78.2724 109.617H48.4175V262.922H78.2724V109.617Z" fill="#EBEBEB"/>
<path d="M78.2799 106.561H47.7034V109.617H78.2799V106.561Z" fill="#C7C7C7"/>
<path d="M54.1443 114.115H51.1196V262.922H54.1443V114.115Z" fill="white"/>
<path d="M59.5027 114.115H56.478V262.922H59.5027V114.115Z" fill="white"/>
<path d="M64.8611 114.115H61.8364V262.922H64.8611V114.115Z" fill="white"/>
<path d="M70.2195 114.115H67.1948V262.922H70.2195V114.115Z" fill="white"/>
<path d="M75.5779 114.115H72.5532V262.922H75.5779V114.115Z" fill="white"/>
<path d="M54.1443 117.969H51.1196V123.995H54.1443V117.969Z" fill="#EBEBEB"/>
<path d="M59.5027 117.969H56.478V123.995H59.5027V117.969Z" fill="#EBEBEB"/>
<path d="M64.8611 117.969H61.8364V123.995H64.8611V117.969Z" fill="#EBEBEB"/>
<path d="M70.2195 117.969H67.1948V123.995H70.2195V117.969Z" fill="#EBEBEB"/>
<path d="M75.5779 117.969H72.5532V123.995H75.5779V117.969Z" fill="#EBEBEB"/>
<path d="M54.1443 127.764H51.1196V133.791H54.1443V127.764Z" fill="#EBEBEB"/>
<path d="M59.5027 127.764H56.478V133.791H59.5027V127.764Z" fill="#EBEBEB"/>
<path d="M64.8611 127.764H61.8364V133.791H64.8611V127.764Z" fill="#EBEBEB"/>
<path d="M70.2195 127.764H67.1948V133.791H70.2195V127.764Z" fill="#EBEBEB"/>
<path d="M75.5779 127.764H72.5532V133.791H75.5779V127.764Z" fill="#EBEBEB"/>
<path d="M54.1443 137.56H51.1196V143.586H54.1443V137.56Z" fill="#EBEBEB"/>
<path d="M59.5027 137.56H56.478V143.586H59.5027V137.56Z" fill="#EBEBEB"/>
<path d="M64.8611 137.56H61.8364V143.586H64.8611V137.56Z" fill="#EBEBEB"/>
<path d="M70.2195 137.56H67.1948V143.586H70.2195V137.56Z" fill="#EBEBEB"/>
<path d="M75.5779 137.56H72.5532V143.586H75.5779V137.56Z" fill="#EBEBEB"/>
<path d="M54.1443 147.356H51.1196V153.382H54.1443V147.356Z" fill="#EBEBEB"/>
<path d="M59.5027 147.356H56.478V153.382H59.5027V147.356Z" fill="#EBEBEB"/>
<path d="M64.8611 147.356H61.8364V153.382H64.8611V147.356Z" fill="#EBEBEB"/>
<path d="M70.2195 147.356H67.1948V153.382H70.2195V147.356Z" fill="#EBEBEB"/>
<path d="M75.5779 147.356H72.5532V153.382H75.5779V147.356Z" fill="#EBEBEB"/>
<path d="M54.1443 157.151H51.1196V163.177H54.1443V157.151Z" fill="#EBEBEB"/>
<path d="M59.5027 157.151H56.478V163.177H59.5027V157.151Z" fill="#EBEBEB"/>
<path d="M64.8611 157.151H61.8364V163.177H64.8611V157.151Z" fill="#EBEBEB"/>
<path d="M70.2195 157.151H67.1948V163.177H70.2195V157.151Z" fill="#EBEBEB"/>
<path d="M75.5779 157.151H72.5532V163.177H75.5779V157.151Z" fill="#EBEBEB"/>
<path d="M54.1443 166.939H51.1196V172.965H54.1443V166.939Z" fill="#EBEBEB"/>
<path d="M59.5027 166.939H56.478V172.965H59.5027V166.939Z" fill="#EBEBEB"/>
<path d="M64.8611 166.939H61.8364V172.965H64.8611V166.939Z" fill="#EBEBEB"/>
<path d="M70.2195 166.939H67.1948V172.965H70.2195V166.939Z" fill="#EBEBEB"/>
<path d="M75.5779 166.939H72.5532V172.965H75.5779V166.939Z" fill="#EBEBEB"/>
<path d="M54.1443 176.735H51.1196V182.761H54.1443V176.735Z" fill="#EBEBEB"/>
<path d="M59.5027 176.735H56.478V182.761H59.5027V176.735Z" fill="#EBEBEB"/>
<path d="M64.8611 176.735H61.8364V182.761H64.8611V176.735Z" fill="#EBEBEB"/>
<path d="M70.2195 176.735H67.1948V182.761H70.2195V176.735Z" fill="#EBEBEB"/>
<path d="M75.5779 176.735H72.5532V182.761H75.5779V176.735Z" fill="#EBEBEB"/>
<path d="M54.1443 186.53H51.1196V192.556H54.1443V186.53Z" fill="#EBEBEB"/>
<path d="M59.5027 186.53H56.478V192.556H59.5027V186.53Z" fill="#EBEBEB"/>
<path d="M64.8611 186.53H61.8364V192.556H64.8611V186.53Z" fill="#EBEBEB"/>
<path d="M70.2195 186.53H67.1948V192.556H70.2195V186.53Z" fill="#EBEBEB"/>
<path d="M75.5779 186.53H72.5532V192.556H75.5779V186.53Z" fill="#EBEBEB"/>
<path d="M54.1443 196.326H51.1196V202.352H54.1443V196.326Z" fill="#EBEBEB"/>
<path d="M59.5027 196.326H56.478V202.352H59.5027V196.326Z" fill="#EBEBEB"/>
<path d="M64.8611 196.326H61.8364V202.352H64.8611V196.326Z" fill="#EBEBEB"/>
<path d="M70.2195 196.326H67.1948V202.352H70.2195V196.326Z" fill="#EBEBEB"/>
<path d="M75.5779 196.326H72.5532V202.352H75.5779V196.326Z" fill="#EBEBEB"/>
<path d="M54.1443 206.121H51.1196V212.147H54.1443V206.121Z" fill="#EBEBEB"/>
<path d="M59.5027 206.121H56.478V212.147H59.5027V206.121Z" fill="#EBEBEB"/>
<path d="M64.8611 206.121H61.8364V212.147H64.8611V206.121Z" fill="#EBEBEB"/>
<path d="M70.2195 206.121H67.1948V212.147H70.2195V206.121Z" fill="#EBEBEB"/>
<path d="M75.5779 206.121H72.5532V212.147H75.5779V206.121Z" fill="#EBEBEB"/>
<path d="M54.1443 215.917H51.1196V221.943H54.1443V215.917Z" fill="#EBEBEB"/>
<path d="M59.5027 215.917H56.478V221.943H59.5027V215.917Z" fill="#EBEBEB"/>
<path d="M64.8611 215.917H61.8364V221.943H64.8611V215.917Z" fill="#EBEBEB"/>
<path d="M70.2195 215.917H67.1948V221.943H70.2195V215.917Z" fill="#EBEBEB"/>
<path d="M75.5779 215.917H72.5532V221.943H75.5779V215.917Z" fill="#EBEBEB"/>
<path d="M54.1443 225.705H51.1196V231.731H54.1443V225.705Z" fill="#EBEBEB"/>
<path d="M59.5027 225.705H56.478V231.731H59.5027V225.705Z" fill="#EBEBEB"/>
<path d="M64.8611 225.705H61.8364V231.731H64.8611V225.705Z" fill="#EBEBEB"/>
<path d="M70.2195 225.705H67.1948V231.731H70.2195V225.705Z" fill="#EBEBEB"/>
<path d="M75.5779 225.705H72.5532V231.731H75.5779V225.705Z" fill="#EBEBEB"/>
<path d="M54.1443 235.5H51.1196V241.526H54.1443V235.5Z" fill="#EBEBEB"/>
<path d="M59.5027 235.5H56.478V241.526H59.5027V235.5Z" fill="#EBEBEB"/>
<path d="M64.8611 235.5H61.8364V241.526H64.8611V235.5Z" fill="#EBEBEB"/>
<path d="M70.2195 235.5H67.1948V241.526H70.2195V235.5Z" fill="#EBEBEB"/>
<path d="M75.5779 235.5H72.5532V241.526H75.5779V235.5Z" fill="#EBEBEB"/>
<path d="M54.1443 245.296H51.1196V262.922H54.1443V245.296Z" fill="#EBEBEB"/>
<path d="M59.5027 245.296H56.478V262.922H59.5027V245.296Z" fill="#EBEBEB"/>
<path d="M64.8611 245.296H61.8364V262.922H64.8611V245.296Z" fill="#EBEBEB"/>
<path d="M70.2195 245.296H67.1948V262.922H70.2195V245.296Z" fill="#EBEBEB"/>
<path d="M75.5779 245.296H72.5532V262.922H75.5779V245.296Z" fill="#EBEBEB"/>
<path d="M97.4489 109.617H78.28V262.922H97.4489V109.617Z" fill="#DBDBDB"/>
<path d="M98.278 106.561H78.28V109.617H98.278V106.561Z" fill="#C7C7C7"/>
<path d="M83.9993 114.115H80.9746V262.922H83.9993V114.115Z" fill="#C7C7C7"/>
<path d="M89.3576 114.115H86.333V262.922H89.3576V114.115Z" fill="#C7C7C7"/>
<path d="M94.7159 114.115H91.6913V262.922H94.7159V114.115Z" fill="#C7C7C7"/>
<path d="M83.9993 117.969H80.9746V123.995H83.9993V117.969Z" fill="#DBDBDB"/>
<path d="M89.3576 117.969H86.333V123.995H89.3576V117.969Z" fill="#DBDBDB"/>
<path d="M94.7159 117.969H91.6913V123.995H94.7159V117.969Z" fill="#DBDBDB"/>
<path d="M83.9993 127.764H80.9746V133.791H83.9993V127.764Z" fill="#DBDBDB"/>
<path d="M89.3576 127.764H86.333V133.791H89.3576V127.764Z" fill="#DBDBDB"/>
<path d="M94.7159 127.764H91.6913V133.791H94.7159V127.764Z" fill="#DBDBDB"/>
<path d="M83.9993 137.56H80.9746V143.586H83.9993V137.56Z" fill="#DBDBDB"/>
<path d="M89.3576 137.56H86.333V143.586H89.3576V137.56Z" fill="#DBDBDB"/>
<path d="M94.7159 137.56H91.6913V143.586H94.7159V137.56Z" fill="#DBDBDB"/>
<path d="M83.9993 147.356H80.9746V153.382H83.9993V147.356Z" fill="#DBDBDB"/>
<path d="M89.3576 147.356H86.333V153.382H89.3576V147.356Z" fill="#DBDBDB"/>
<path d="M94.7159 147.356H91.6913V153.382H94.7159V147.356Z" fill="#DBDBDB"/>
<path d="M83.9993 157.151H80.9746V163.177H83.9993V157.151Z" fill="#DBDBDB"/>
<path d="M89.3576 157.151H86.333V163.177H89.3576V157.151Z" fill="#DBDBDB"/>
<path d="M94.7159 157.151H91.6913V163.177H94.7159V157.151Z" fill="#DBDBDB"/>
<path d="M83.9993 166.939H80.9746V172.965H83.9993V166.939Z" fill="#DBDBDB"/>
<path d="M89.3576 166.939H86.333V172.965H89.3576V166.939Z" fill="#DBDBDB"/>
<path d="M94.7159 166.939H91.6913V172.965H94.7159V166.939Z" fill="#DBDBDB"/>
<path d="M83.9993 176.735H80.9746V182.761H83.9993V176.735Z" fill="#DBDBDB"/>
<path d="M89.3576 176.735H86.333V182.761H89.3576V176.735Z" fill="#DBDBDB"/>
<path d="M94.7159 176.735H91.6913V182.761H94.7159V176.735Z" fill="#DBDBDB"/>
<path d="M83.9993 186.53H80.9746V192.556H83.9993V186.53Z" fill="#DBDBDB"/>
<path d="M89.3576 186.53H86.333V192.556H89.3576V186.53Z" fill="#DBDBDB"/>
<path d="M94.7159 186.53H91.6913V192.556H94.7159V186.53Z" fill="#DBDBDB"/>
<path d="M83.9993 196.326H80.9746V202.352H83.9993V196.326Z" fill="#DBDBDB"/>
<path d="M89.3576 196.326H86.333V202.352H89.3576V196.326Z" fill="#DBDBDB"/>
<path d="M94.7159 196.326H91.6913V202.352H94.7159V196.326Z" fill="#DBDBDB"/>
<path d="M83.9993 206.121H80.9746V212.147H83.9993V206.121Z" fill="#DBDBDB"/>
<path d="M89.3576 206.121H86.333V212.147H89.3576V206.121Z" fill="#DBDBDB"/>
<path d="M94.7159 206.121H91.6913V212.147H94.7159V206.121Z" fill="#DBDBDB"/>
<path d="M83.9993 215.917H80.9746V221.943H83.9993V215.917Z" fill="#DBDBDB"/>
<path d="M89.3576 215.917H86.333V221.943H89.3576V215.917Z" fill="#DBDBDB"/>
<path d="M94.7159 215.917H91.6913V221.943H94.7159V215.917Z" fill="#DBDBDB"/>
<path d="M83.9993 225.705H80.9746V231.731H83.9993V225.705Z" fill="#DBDBDB"/>
<path d="M89.3576 225.705H86.333V231.731H89.3576V225.705Z" fill="#DBDBDB"/>
<path d="M94.7159 225.705H91.6913V231.731H94.7159V225.705Z" fill="#DBDBDB"/>
<path d="M83.9993 235.5H80.9746V241.526H83.9993V235.5Z" fill="#DBDBDB"/>
<path d="M89.3576 235.5H86.333V241.526H89.3576V235.5Z" fill="#DBDBDB"/>
<path d="M94.7159 235.5H91.6913V241.526H94.7159V235.5Z" fill="#DBDBDB"/>
<path d="M83.9993 245.296H80.9746V262.922H83.9993V245.296Z" fill="#DBDBDB"/>
<path d="M89.3576 245.296H86.333V262.922H89.3576V245.296Z" fill="#DBDBDB"/>
<path d="M94.7159 245.296H91.6913V262.922H94.7159V245.296Z" fill="#DBDBDB"/>
<path d="M34.9524 155.531H6.63281V262.922H34.9524V155.531Z" fill="#EBEBEB"/>
<path d="M34.9524 148.407H10.6631V155.531H34.9524V148.407Z" fill="#C7C7C7"/>
<path d="M31.8432 159.247H9.73413V239.53H31.8432V159.247Z" fill="#DBDBDB"/>
<path d="M31.8432 166.908H9.73413V168.804H31.8432V166.908Z" fill="white"/>
<path d="M31.8432 174.769H9.73413V176.665H31.8432V174.769Z" fill="white"/>
<path d="M31.8432 182.623H9.73413V184.519H31.8432V182.623Z" fill="white"/>
<path d="M31.8432 190.484H9.73413V192.38H31.8432V190.484Z" fill="white"/>
<path d="M31.8432 198.345H9.73413V200.241H31.8432V198.345Z" fill="white"/>
<path d="M31.8432 206.198H9.73413V208.094H31.8432V206.198Z" fill="white"/>
<path d="M31.8432 214.059H9.73413V215.955H31.8432V214.059Z" fill="white"/>
<path d="M31.8432 221.92H9.73413V223.816H31.8432V221.92Z" fill="white"/>
<path d="M31.8432 229.773H9.73413V231.669H31.8432V229.773Z" fill="white"/>
<path d="M31.8432 237.634H9.73413V239.531H31.8432V237.634Z" fill="white"/>
<path d="M52.6857 155.531H34.9524V262.922H52.6857V155.531Z" fill="#DBDBDB"/>
<path d="M50.0296 148.407H34.9524V155.531H50.0296V148.407Z" fill="#A6A6A6"/>
<path d="M51.0275 159.247H37.3936V239.53H51.0275V159.247Z" fill="#C7C7C7"/>
<path d="M51.0275 166.908H37.3936V168.804H51.0275V166.908Z" fill="white"/>
<path d="M51.0275 174.769H37.3936V176.665H51.0275V174.769Z" fill="white"/>
<path d="M51.0275 182.623H37.3936V184.519H51.0275V182.623Z" fill="white"/>
<path d="M51.0275 190.484H37.3936V192.38H51.0275V190.484Z" fill="white"/>
<path d="M51.0275 198.345H37.3936V200.241H51.0275V198.345Z" fill="white"/>
<path d="M51.0275 206.198H37.3936V208.094H51.0275V206.198Z" fill="white"/>
<path d="M51.0275 214.059H37.3936V215.955H51.0275V214.059Z" fill="white"/>
<path d="M51.0275 221.92H37.3936V223.816H51.0275V221.92Z" fill="white"/>
<path d="M51.0275 229.773H37.3936V231.669H51.0275V229.773Z" fill="white"/>
<path d="M51.0275 237.634H37.3936V239.531H51.0275V237.634Z" fill="white"/>
<path d="M274.782 157.343H259.659V175.207H274.782V157.343Z" fill="#DBDBDB"/>
<path d="M284.371 157.343H274.782V175.867H284.371V157.343Z" fill="#C7C7C7"/>
<path d="M285.008 165.227H275.489V175.859H285.008V165.227Z" fill="#DBDBDB"/>
<path d="M290.942 165.227H285.008V175.859H290.942V165.227Z" fill="#C7C7C7"/>
<path d="M278.314 174.048H253.855V262.929H278.314V174.048Z" fill="#EBEBEB"/>
<path d="M264.342 177.863H256.65V181.003H264.342V177.863Z" fill="white"/>
<path d="M274.183 177.863H266.491V181.003H274.183V177.863Z" fill="white"/>
<path d="M264.342 183.198H256.65V186.338H264.342V183.198Z" fill="white"/>
<path d="M274.183 183.198H266.491V186.338H274.183V183.198Z" fill="white"/>
<path d="M264.342 188.534H256.65V191.674H264.342V188.534Z" fill="white"/>
<path d="M274.183 188.534H266.491V191.674H274.183V188.534Z" fill="white"/>
<path d="M264.342 193.869H256.65V197.009H264.342V193.869Z" fill="white"/>
<path d="M274.183 193.869H266.491V197.009H274.183V193.869Z" fill="white"/>
<path d="M264.342 199.204H256.65V202.344H264.342V199.204Z" fill="white"/>
<path d="M274.183 199.204H266.491V202.344H274.183V199.204Z" fill="white"/>
<path d="M264.342 204.54H256.65V207.68H264.342V204.54Z" fill="white"/>
<path d="M274.183 204.54H266.491V207.68H274.183V204.54Z" fill="white"/>
<path d="M264.342 209.875H256.65V213.015H264.342V209.875Z" fill="white"/>
<path d="M274.183 209.875H266.491V213.015H274.183V209.875Z" fill="white"/>
<path d="M264.342 215.211H256.65V218.35H264.342V215.211Z" fill="white"/>
<path d="M274.183 215.211H266.491V218.35H274.183V215.211Z" fill="white"/>
<path d="M264.342 220.546H256.65V223.686H264.342V220.546Z" fill="white"/>
<path d="M274.183 220.546H266.491V223.686H274.183V220.546Z" fill="white"/>
<path d="M264.342 225.881H256.65V229.021H264.342V225.881Z" fill="white"/>
<path d="M274.183 225.881H266.491V229.021H274.183V225.881Z" fill="white"/>
<path d="M264.342 231.209H256.65V234.349H264.342V231.209Z" fill="white"/>
<path d="M274.183 231.209H266.491V234.349H274.183V231.209Z" fill="white"/>
<path d="M264.342 236.544H256.65V239.684H264.342V236.544Z" fill="white"/>
<path d="M274.183 236.544H266.491V239.684H274.183V236.544Z" fill="white"/>
<path d="M264.342 241.88H256.65V245.019H264.342V241.88Z" fill="white"/>
<path d="M274.183 241.88H266.491V245.019H274.183V241.88Z" fill="white"/>
<path d="M264.342 247.215H256.65V250.355H264.342V247.215Z" fill="white"/>
<path d="M274.183 247.215H266.491V250.355H274.183V247.215Z" fill="white"/>
<path d="M298.127 174.048H278.313V262.929H298.127V174.048Z" fill="#C7C7C7"/>
<path d="M289.829 250.362H296.139V247.223H289.829V250.362Z" fill="#EBEBEB"/>
<path d="M281.753 250.362H288.063V247.223H281.753V250.362Z" fill="#EBEBEB"/>
<path d="M289.829 245.027H296.139V241.887H289.829V245.027Z" fill="#EBEBEB"/>
<path d="M281.753 245.027H288.063V241.887H281.753V245.027Z" fill="#EBEBEB"/>
<path d="M289.829 239.692H296.139V236.552H289.829V239.692Z" fill="#EBEBEB"/>
<path d="M281.753 239.692H288.063V236.552H281.753V239.692Z" fill="#EBEBEB"/>
<path d="M289.829 234.356H296.139V231.217H289.829V234.356Z" fill="#EBEBEB"/>
<path d="M281.753 234.356H288.063V231.217H281.753V234.356Z" fill="#EBEBEB"/>
<path d="M289.829 229.013H296.139V225.874H289.829V229.013Z" fill="#EBEBEB"/>
<path d="M281.753 229.013H288.063V225.874H281.753V229.013Z" fill="#EBEBEB"/>
<path d="M289.829 223.686H296.139V220.546H289.829V223.686Z" fill="#EBEBEB"/>
<path d="M281.753 223.686H288.063V220.546H281.753V223.686Z" fill="#EBEBEB"/>
<path d="M289.829 218.35H296.139V215.21H289.829V218.35Z" fill="#EBEBEB"/>
<path d="M281.753 218.35H288.063V215.21H281.753V218.35Z" fill="#EBEBEB"/>
<path d="M289.829 213.015H296.139V209.875H289.829V213.015Z" fill="#EBEBEB"/>
<path d="M281.753 213.015H288.063V209.875H281.753V213.015Z" fill="#EBEBEB"/>
<path d="M289.829 207.68H296.139V204.54H289.829V207.68Z" fill="#EBEBEB"/>
<path d="M281.753 207.68H288.063V204.54H281.753V207.68Z" fill="#EBEBEB"/>
<path d="M289.829 202.344H296.139V199.204H289.829V202.344Z" fill="#EBEBEB"/>
<path d="M281.753 202.344H288.063V199.204H281.753V202.344Z" fill="#EBEBEB"/>
<path d="M289.829 197.009H296.139V193.869H289.829V197.009Z" fill="#EBEBEB"/>
<path d="M281.753 197.009H288.063V193.869H281.753V197.009Z" fill="#EBEBEB"/>
<path d="M289.829 191.681H296.139V188.541H289.829V191.681Z" fill="#EBEBEB"/>
<path d="M281.753 191.681H288.063V188.541H281.753V191.681Z" fill="#EBEBEB"/>
<path d="M289.829 186.346H296.139V183.206H289.829V186.346Z" fill="#EBEBEB"/>
<path d="M281.753 186.346H288.063V183.206H281.753V186.346Z" fill="#EBEBEB"/>
<path d="M289.829 181.01H296.139V177.871H289.829V181.01Z" fill="#EBEBEB"/>
<path d="M281.753 181.01H288.063V177.871H281.753V181.01Z" fill="#EBEBEB"/>
<path d="M111.275 157.343H96.1515V175.207H111.275V157.343Z" fill="#DBDBDB"/>
<path d="M120.863 157.343H111.275V175.867H120.863V157.343Z" fill="#C7C7C7"/>
<path d="M121.508 165.227H111.989V175.859H121.508V165.227Z" fill="#DBDBDB"/>
<path d="M127.434 165.227H121.5V175.859H127.434V165.227Z" fill="#C7C7C7"/>
<path d="M114.806 174.048H90.3479V262.929H114.806V174.048Z" fill="#EBEBEB"/>
<path d="M100.834 177.863H93.1422V181.003H100.834V177.863Z" fill="white"/>
<path d="M110.676 177.863H102.984V181.003H110.676V177.863Z" fill="white"/>
<path d="M100.834 183.198H93.1422V186.338H100.834V183.198Z" fill="white"/>
<path d="M110.676 183.198H102.984V186.338H110.676V183.198Z" fill="white"/>
<path d="M100.834 188.534H93.1422V191.674H100.834V188.534Z" fill="white"/>
<path d="M110.676 188.534H102.984V191.674H110.676V188.534Z" fill="white"/>
<path d="M100.834 193.869H93.1422V197.009H100.834V193.869Z" fill="white"/>
<path d="M110.676 193.869H102.984V197.009H110.676V193.869Z" fill="white"/>
<path d="M100.834 199.204H93.1422V202.344H100.834V199.204Z" fill="white"/>
<path d="M110.676 199.204H102.984V202.344H110.676V199.204Z" fill="white"/>
<path d="M100.834 204.54H93.1422V207.68H100.834V204.54Z" fill="white"/>
<path d="M110.676 204.54H102.984V207.68H110.676V204.54Z" fill="white"/>
<path d="M100.834 209.875H93.1422V213.015H100.834V209.875Z" fill="white"/>
<path d="M110.676 209.875H102.984V213.015H110.676V209.875Z" fill="white"/>
<path d="M100.834 215.211H93.1422V218.35H100.834V215.211Z" fill="white"/>
<path d="M110.676 215.211H102.984V218.35H110.676V215.211Z" fill="white"/>
<path d="M100.834 220.546H93.1422V223.686H100.834V220.546Z" fill="white"/>
<path d="M110.676 220.546H102.984V223.686H110.676V220.546Z" fill="white"/>
<path d="M100.834 225.881H93.1422V229.021H100.834V225.881Z" fill="white"/>
<path d="M110.676 225.881H102.984V229.021H110.676V225.881Z" fill="white"/>
<path d="M100.834 231.209H93.1422V234.349H100.834V231.209Z" fill="white"/>
<path d="M110.676 231.209H102.984V234.349H110.676V231.209Z" fill="white"/>
<path d="M100.834 236.544H93.1422V239.684H100.834V236.544Z" fill="white"/>
<path d="M110.676 236.544H102.984V239.684H110.676V236.544Z" fill="white"/>
<path d="M100.834 241.88H93.1422V245.019H100.834V241.88Z" fill="white"/>
<path d="M110.676 241.88H102.984V245.019H110.676V241.88Z" fill="white"/>
<path d="M100.834 247.215H93.1422V250.355H100.834V247.215Z" fill="white"/>
<path d="M110.676 247.215H102.984V250.355H110.676V247.215Z" fill="white"/>
<path d="M134.62 174.048H114.806V262.929H134.62V174.048Z" fill="#C7C7C7"/>
<path d="M126.321 250.362H132.631V247.223H126.321V250.362Z" fill="#EBEBEB"/>
<path d="M118.245 250.362H124.556V247.223H118.245V250.362Z" fill="#EBEBEB"/>
<path d="M126.321 245.027H132.631V241.887H126.321V245.027Z" fill="#EBEBEB"/>
<path d="M118.245 245.027H124.556V241.887H118.245V245.027Z" fill="#EBEBEB"/>
<path d="M126.321 239.692H132.631V236.552H126.321V239.692Z" fill="#EBEBEB"/>
<path d="M118.245 239.692H124.556V236.552H118.245V239.692Z" fill="#EBEBEB"/>
<path d="M126.321 234.356H132.631V231.217H126.321V234.356Z" fill="#EBEBEB"/>
<path d="M118.245 234.356H124.556V231.217H118.245V234.356Z" fill="#EBEBEB"/>
<path d="M126.321 229.013H132.631V225.874H126.321V229.013Z" fill="#EBEBEB"/>
<path d="M118.245 229.013H124.556V225.874H118.245V229.013Z" fill="#EBEBEB"/>
<path d="M126.321 223.686H132.631V220.546H126.321V223.686Z" fill="#EBEBEB"/>
<path d="M118.245 223.686H124.556V220.546H118.245V223.686Z" fill="#EBEBEB"/>
<path d="M126.321 218.35H132.631V215.21H126.321V218.35Z" fill="#EBEBEB"/>
<path d="M118.245 218.35H124.556V215.21H118.245V218.35Z" fill="#EBEBEB"/>
<path d="M126.321 213.015H132.631V209.875H126.321V213.015Z" fill="#EBEBEB"/>
<path d="M118.245 213.015H124.556V209.875H118.245V213.015Z" fill="#EBEBEB"/>
<path d="M126.321 207.68H132.631V204.54H126.321V207.68Z" fill="#EBEBEB"/>
<path d="M118.245 207.68H124.556V204.54H118.245V207.68Z" fill="#EBEBEB"/>
<path d="M126.321 202.344H132.631V199.204H126.321V202.344Z" fill="#EBEBEB"/>
<path d="M118.245 202.344H124.556V199.204H118.245V202.344Z" fill="#EBEBEB"/>
<path d="M126.321 197.009H132.631V193.869H126.321V197.009Z" fill="#EBEBEB"/>
<path d="M118.245 197.009H124.556V193.869H118.245V197.009Z" fill="#EBEBEB"/>
<path d="M126.321 191.681H132.631V188.541H126.321V191.681Z" fill="#EBEBEB"/>
<path d="M118.245 191.681H124.556V188.541H118.245V191.681Z" fill="#EBEBEB"/>
<path d="M126.321 186.346H132.631V183.206H126.321V186.346Z" fill="#EBEBEB"/>
<path d="M118.245 186.346H124.556V183.206H118.245V186.346Z" fill="#EBEBEB"/>
<path d="M126.321 181.01H132.631V177.871H126.321V181.01Z" fill="#EBEBEB"/>
<path d="M118.245 181.01H124.556V177.871H118.245V181.01Z" fill="#EBEBEB"/>
<path d="M154.303 314.893C227.299 314.893 286.474 308.982 286.474 301.689C286.474 294.397 227.299 288.485 154.303 288.485C81.307 288.485 22.1321 294.397 22.1321 301.689C22.1321 308.982 81.307 314.893 154.303 314.893Z" fill="#EBEBEB"/>
<path d="M228.86 205.008H200.018V262.922H228.86V205.008Z" fill="#37474F"/>
<path d="M209.66 210.021H204.555V213.568H209.66V210.021Z" fill="#455A64"/>
<path d="M209.66 217.598H204.555V221.145H209.66V217.598Z" fill="#455A64"/>
<path d="M209.66 225.175H204.555V228.722H209.66V225.175Z" fill="#455A64"/>
<path d="M209.66 232.76H204.555V236.306H209.66V232.76Z" fill="#455A64"/>
<path d="M209.66 240.337H204.555V243.883H209.66V240.337Z" fill="#455A64"/>
<path d="M209.66 247.914H204.555V251.46H209.66V247.914Z" fill="#455A64"/>
<path d="M209.66 255.491H204.555V259.037H209.66V255.491Z" fill="#455A64"/>
<path d="M216.999 210.021H211.894V213.568H216.999V210.021Z" fill="#455A64"/>
<path d="M216.999 217.598H211.894V221.145H216.999V217.598Z" fill="#455A64"/>
<path d="M216.999 225.175H211.894V228.722H216.999V225.175Z" fill="#455A64"/>
<path d="M216.999 232.76H211.894V236.306H216.999V232.76Z" fill="#455A64"/>
<path d="M216.999 240.337H211.894V243.883H216.999V240.337Z" fill="#455A64"/>
<path d="M216.999 247.914H211.894V251.46H216.999V247.914Z" fill="#455A64"/>
<path d="M216.999 255.491H211.894V259.037H216.999V255.491Z" fill="#455A64"/>
<path d="M224.331 210.021H219.225V213.568H224.331V210.021Z" fill="#455A64"/>
<path d="M224.331 217.598H219.225V221.145H224.331V217.598Z" fill="#455A64"/>
<path d="M224.331 225.175H219.225V228.722H224.331V225.175Z" fill="#455A64"/>
<path d="M224.331 232.76H219.225V236.306H224.331V232.76Z" fill="#455A64"/>
<path d="M224.331 240.337H219.225V243.883H224.331V240.337Z" fill="#455A64"/>
<path d="M224.331 247.914H219.225V251.46H224.331V247.914Z" fill="#455A64"/>
<path d="M224.331 255.491H219.225V259.037H224.331V255.491Z" fill="#455A64"/>
<path d="M228.867 198.974H209.66V205.008H228.867V198.974Z" fill="#455A64"/>
<path d="M228.86 195.236H216.684V198.974H228.86V195.236Z" fill="#37474F"/>
<path d="M249.096 205.008H228.86V262.922H249.096V205.008Z" fill="#263238"/>
<path d="M242.87 258.469H247.023V254.922H242.87V258.469Z" fill="#37474F"/>
<path d="M242.87 250.9H247.023V247.353H242.87V250.9Z" fill="#37474F"/>
<path d="M242.87 243.323H247.023V239.776H242.87V243.323Z" fill="#37474F"/>
<path d="M242.87 235.738H247.023V232.192H242.87V235.738Z" fill="#37474F"/>
<path d="M242.87 228.161H247.023V224.615H242.87V228.161Z" fill="#37474F"/>
<path d="M242.87 220.577H247.023V217.03H242.87V220.577Z" fill="#37474F"/>
<path d="M242.87 213.007H247.023V209.461H242.87V213.007Z" fill="#37474F"/>
<path d="M236.897 258.469H241.051V254.922H236.897V258.469Z" fill="#37474F"/>
<path d="M236.897 250.9H241.051V247.353H236.897V250.9Z" fill="#37474F"/>
<path d="M236.897 243.323H241.051V239.776H236.897V243.323Z" fill="#37474F"/>
<path d="M236.897 235.738H241.051V232.192H236.897V235.738Z" fill="#37474F"/>
<path d="M236.897 228.161H241.051V224.615H236.897V228.161Z" fill="#37474F"/>
<path d="M236.897 220.577H241.051V217.03H236.897V220.577Z" fill="#37474F"/>
<path d="M236.897 213.007H241.051V209.461H236.897V213.007Z" fill="#37474F"/>
<path d="M230.94 258.469H235.093V254.922H230.94V258.469Z" fill="#37474F"/>
<path d="M230.94 250.9H235.093V247.353H230.94V250.9Z" fill="#37474F"/>
<path d="M230.94 243.323H235.093V239.776H230.94V243.323Z" fill="#37474F"/>
<path d="M230.94 235.738H235.093V232.192H230.94V235.738Z" fill="#37474F"/>
<path d="M230.94 228.161H235.093V224.615H230.94V228.161Z" fill="#37474F"/>
<path d="M230.94 220.577H235.093V217.03H230.94V220.577Z" fill="#37474F"/>
<path d="M230.94 213.007H235.093V209.461H230.94V213.007Z" fill="#37474F"/>
<path d="M246.033 198.974H228.86V205.008H246.033V198.974Z" fill="#37474F"/>
<path d="M238.164 195.236H228.86V198.974H238.164V195.236Z" fill="#263238"/>
<path d="M221.014 39.067H228.768C211.702 39.067 197.876 53.1079 197.876 70.4266C197.876 87.7454 211.695 101.802 228.768 101.802H221.014C203.949 101.802 190.123 87.7608 190.123 70.4266C190.123 53.0925 203.949 39.067 221.014 39.067Z" fill="#FFC727"/>
<g opacity="0.1">
<path d="M221.014 39.067H228.768C211.702 39.067 197.876 53.1079 197.876 70.4266C197.876 87.7454 211.695 101.802 228.768 101.802H221.014C203.949 101.802 190.123 87.7608 190.123 70.4266C190.123 53.0925 203.949 39.067 221.014 39.067Z" fill="black"/>
</g>
<path d="M228.768 190.798H221.014C252.374 154.265 281.745 114.215 277.431 69.9968C274.621 41.3547 255.168 12.8279 221.014 12.8279H228.768C262.929 12.8279 282.374 41.3547 285.176 69.9968C289.529 114.215 260.158 154.265 228.768 190.798Z" fill="#FFC727"/>
<g opacity="0.1">
<path d="M228.768 190.798H221.014C252.374 154.265 281.745 114.215 277.431 69.9968C274.621 41.3547 255.168 12.8279 221.014 12.8279H228.768C262.929 12.8279 282.374 41.3547 285.176 69.9968C289.529 114.215 260.158 154.265 228.768 190.798Z" fill="black"/>
</g>
<path d="M277.423 69.9967C281.745 114.215 252.374 154.265 221.014 190.806C189.693 154.265 160.322 114.215 164.636 69.9967C167.446 41.3547 186.899 12.8355 221.014 12.8355C255.13 12.8355 274.621 41.3547 277.423 69.9967ZM221.014 101.802C238.118 101.802 251.944 87.7608 251.944 70.4266C251.944 53.0925 238.126 39.0671 221.014 39.0671C203.903 39.0671 190.123 53.1079 190.123 70.4266C190.123 87.7454 203.941 101.802 221.014 101.802Z" fill="#FFC727"/>
<path d="M1.44312 266.484L39.6581 266.299L77.873 266.23L154.303 266.1L230.733 266.23L268.948 266.299L307.163 266.484L268.948 266.676L230.733 266.745L154.303 266.867L77.873 266.745L39.6581 266.676L1.44312 266.484Z" fill="#263238"/>
<path d="M307.301 262.922H1.30493V266.484H307.301V262.922Z" fill="#C7C7C7"/>
<path d="M10.1563 262.922C10.361 264.1 10.361 265.305 10.1563 266.484C9.94138 265.306 9.94138 264.099 10.1563 262.922Z" fill="#263238"/>
<path d="M20.4509 262.922C20.6555 264.1 20.6555 265.305 20.4509 266.484C20.2462 265.305 20.2462 264.1 20.4509 262.922Z" fill="#263238"/>
<path d="M30.7453 262.922C30.9499 264.1 30.9499 265.305 30.7453 266.484C30.5406 265.305 30.5406 264.1 30.7453 262.922Z" fill="#263238"/>
<path d="M41.04 262.922C41.2446 264.1 41.2446 265.305 41.04 266.484C40.8353 265.305 40.8353 264.1 41.04 262.922Z" fill="#263238"/>
<path d="M51.3421 262.922C51.5468 264.1 51.5468 265.305 51.3421 266.484C51.1272 265.306 51.1272 264.099 51.3421 262.922Z" fill="#263238"/>
<path d="M61.6366 262.922C61.8413 264.1 61.8413 265.305 61.6366 266.484C61.432 265.305 61.432 264.1 61.6366 262.922Z" fill="#263238"/>
<path d="M71.9311 262.922C72.1357 264.1 72.1357 265.305 71.9311 266.484C71.7264 265.305 71.7264 264.1 71.9311 262.922Z" fill="#263238"/>
<path d="M82.2258 262.922C82.4304 264.1 82.4304 265.305 82.2258 266.484C82.0211 265.305 82.0211 264.1 82.2258 262.922Z" fill="#263238"/>
<path d="M92.5279 262.922C92.7326 264.1 92.7326 265.305 92.5279 266.484C92.313 265.306 92.313 264.099 92.5279 262.922Z" fill="#263238"/>
<path d="M102.823 262.922C103.027 264.1 103.027 265.305 102.823 266.484C102.618 265.305 102.618 264.1 102.823 262.922Z" fill="#263238"/>
<path d="M113.117 262.922C113.322 264.1 113.322 265.305 113.117 266.484C112.912 265.305 112.912 264.1 113.117 262.922Z" fill="#263238"/>
<path d="M123.412 262.922C123.616 264.1 123.616 265.305 123.412 266.484C123.207 265.305 123.207 264.1 123.412 262.922Z" fill="#263238"/>
<path d="M133.714 262.922C133.918 264.1 133.918 265.305 133.714 266.484C133.499 265.306 133.499 264.099 133.714 262.922Z" fill="#263238"/>
<path d="M144.008 262.922C144.213 264.1 144.213 265.305 144.008 266.484C143.804 265.305 143.804 264.1 144.008 262.922Z" fill="#263238"/>
<path d="M154.303 262.922C154.508 264.1 154.508 265.305 154.303 266.484C154.098 265.305 154.098 264.1 154.303 262.922Z" fill="#263238"/>
<path d="M164.597 262.922C164.802 264.1 164.802 265.305 164.597 266.484C164.393 265.305 164.393 264.1 164.597 262.922Z" fill="#263238"/>
<path d="M174.9 262.922C175.104 264.1 175.104 265.305 174.9 266.484C174.685 265.306 174.685 264.099 174.9 262.922Z" fill="#263238"/>
<path d="M185.194 262.922C185.399 264.1 185.399 265.305 185.194 266.484C184.99 265.305 184.99 264.1 185.194 262.922Z" fill="#263238"/>
<path d="M195.489 262.922C195.693 264.1 195.693 265.305 195.489 266.484C195.284 265.305 195.284 264.1 195.489 262.922Z" fill="#263238"/>
<path d="M205.783 262.922C205.988 264.1 205.988 265.305 205.783 266.484C205.579 265.305 205.579 264.1 205.783 262.922Z" fill="#263238"/>
<path d="M216.078 262.922C216.293 264.099 216.293 265.306 216.078 266.484C215.873 265.305 215.873 264.1 216.078 262.922Z" fill="#263238"/>
<path d="M226.38 262.922C226.585 264.1 226.585 265.305 226.38 266.484C226.175 265.305 226.175 264.1 226.38 262.922Z" fill="#263238"/>
<path d="M236.675 262.922C236.879 264.1 236.879 265.305 236.675 266.484C236.47 265.305 236.47 264.1 236.675 262.922Z" fill="#263238"/>
<path d="M246.969 262.922C247.174 264.1 247.174 265.305 246.969 266.484C246.765 265.305 246.765 264.1 246.969 262.922Z" fill="#263238"/>
<path d="M257.264 262.922C257.479 264.099 257.479 265.306 257.264 266.484C257.059 265.305 257.059 264.1 257.264 262.922Z" fill="#263238"/>
<path d="M267.566 262.922C267.77 264.1 267.77 265.305 267.566 266.484C267.361 265.305 267.361 264.1 267.566 262.922Z" fill="#263238"/>
<path d="M277.899 262.922C278.103 264.1 278.103 265.305 277.899 266.484C277.787 265.897 277.735 265.3 277.745 264.703C277.739 264.105 277.791 263.509 277.899 262.922Z" fill="#263238"/>
<path d="M288.155 262.922C288.36 264.1 288.36 265.305 288.155 266.484C287.95 265.305 287.95 264.1 288.155 262.922Z" fill="#263238"/>
<path d="M298.45 262.922C298.664 264.099 298.664 265.306 298.45 266.484C298.245 265.305 298.245 264.1 298.45 262.922Z" fill="#263238"/>
<path d="M33.3554 262.922H16.4666C16.4666 262.922 16.4666 260.411 18.1631 259.743C18.615 259.554 19.1154 259.514 19.5917 259.628C20.068 259.743 20.4953 260.006 20.8116 260.381C20.8116 260.381 21.4872 255.775 24.5809 255.775C27.6746 255.775 29.1716 259.743 29.1716 259.743C29.4339 259.362 29.8018 259.066 30.23 258.892C30.6583 258.717 31.1283 258.672 31.5821 258.761C33.2864 258.991 33.3554 262.922 33.3554 262.922Z" fill="#37474F"/>
<path d="M304.66 262.922C304.66 262.922 304.146 260.511 303.125 260.135C302.808 260.052 302.473 260.077 302.173 260.206C301.872 260.336 301.624 260.562 301.467 260.849C301.467 260.849 301.221 258.546 299.755 257.855C298.288 257.164 297.191 258.577 297.191 258.577C297.191 258.577 296.07 255.652 294.058 255.652C292.047 255.652 291.034 259.928 291.034 259.928C291.034 259.928 289.852 258.653 288.639 259.375C287.426 260.097 287.426 262.922 287.426 262.922H304.66Z" fill="#37474F"/>
<path d="M147.079 262.922C147.079 262.922 146.565 260.511 145.544 260.135C145.226 260.051 144.89 260.076 144.588 260.206C144.286 260.335 144.036 260.561 143.878 260.849C143.878 260.849 143.64 258.546 142.174 257.855C140.707 257.164 139.61 258.577 139.61 258.577C139.61 258.577 138.481 255.652 136.478 255.652C134.474 255.652 133.453 259.928 133.453 259.928C133.453 259.928 132.271 258.653 131.058 259.375C129.845 260.097 129.837 262.922 129.837 262.922H147.079Z" fill="#37474F"/>
<path d="M19.5066 262.922H3.9458C3.9458 262.922 4.46014 260.726 5.48115 260.573C5.79435 260.541 6.1096 260.607 6.38423 260.761C6.65886 260.914 6.87958 261.149 7.01651 261.432C7.01651 261.432 6.97045 258.362 8.89732 257.855C10.8242 257.348 12.4363 260.035 12.4363 260.035C12.7805 259.603 13.2138 259.251 13.7066 259.002C14.1995 258.753 14.7403 258.613 15.2921 258.592C16.9426 258.692 17.3571 261.24 17.3571 261.24C17.3571 261.24 18.8464 260.358 19.5066 262.922Z" fill="#455A64"/>
<path d="M133.177 262.922H117.616C117.616 262.922 118.13 260.726 119.151 260.573C119.464 260.541 119.78 260.607 120.054 260.761C120.329 260.914 120.55 261.149 120.686 261.432C120.686 261.432 120.64 258.362 122.567 257.855C124.494 257.348 126.114 260.035 126.114 260.035C126.458 259.603 126.891 259.251 127.384 259.002C127.877 258.753 128.418 258.613 128.97 258.592C130.612 258.692 131.035 261.24 131.035 261.24C131.035 261.24 132.516 260.358 133.177 262.922Z" fill="#455A64"/>
<path d="M288.523 262.922H278.958C278.958 262.922 278.958 261.501 279.926 261.125C280.179 261.013 280.463 260.987 280.733 261.051C281.004 261.114 281.245 261.264 281.422 261.478C281.422 261.478 281.806 258.868 283.557 258.868C285.307 258.868 286.144 261.125 286.144 261.125C286.293 260.909 286.501 260.741 286.744 260.642C286.986 260.542 287.253 260.516 287.51 260.565C288.485 260.695 288.523 262.922 288.523 262.922Z" fill="#455A64"/>
<path d="M171.553 262.922H161.98C161.98 262.922 161.98 261.501 162.939 261.125C163.198 261.005 163.49 260.974 163.768 261.038C164.046 261.102 164.295 261.257 164.475 261.478C164.475 261.478 164.859 258.868 166.609 258.868C168.359 258.868 169.196 261.125 169.196 261.125C169.345 260.909 169.553 260.741 169.796 260.642C170.038 260.542 170.305 260.516 170.562 260.565C171.514 260.695 171.553 262.922 171.553 262.922Z" fill="#455A64"/>
<path d="M131.933 304.261C130.144 304.837 79.1014 304.184 77.1746 302.925C76.4069 302.457 76.0921 295.018 75.9463 286.036V285.752C75.9079 283.894 75.8849 281.983 75.8772 280.048C75.8772 279.78 75.8772 279.519 75.8772 279.281L78.3491 252.804L112.495 253.134L109.133 279.365L109.087 280.409L108.887 285.837V286.397C108.887 286.397 128.317 295.379 130.29 296.991C132.263 298.603 133.722 303.685 131.933 304.261Z" fill="#DD6A57"/>
<path d="M131.933 304.261C130.144 304.837 79.1014 304.184 77.1746 302.925C76.4069 302.457 76.0921 295.018 75.9463 286.036V285.752C75.9079 283.894 75.8849 281.983 75.8772 280.048C75.8772 279.78 75.8772 279.519 75.8772 279.281L109.133 279.365L109.087 280.409L108.887 285.837V286.397C108.887 286.397 128.317 295.379 130.29 296.991C132.263 298.603 133.722 303.685 131.933 304.261Z" fill="#EBEBEB"/>
<path d="M131.941 304.253C131.019 304.553 117.148 304.522 103.598 304.253C100.873 304.2 98.1629 304.138 95.5759 304.069C85.9108 303.808 77.9193 303.409 77.1516 302.925C76.384 302.442 76.0769 295.248 75.9233 286.389C75.9233 286.259 75.9233 286.136 75.9233 286.013C75.9233 285.89 75.9233 285.814 75.9233 285.722H76.0001L108.895 285.775V286.343C108.895 286.343 128.317 295.325 130.29 296.93C132.263 298.534 133.729 303.685 131.941 304.253Z" fill="#FFC727"/>
<path d="M131.38 302.273C122.782 301.95 88.0602 301.467 79.5313 301.804C79.4622 301.804 79.4622 301.858 79.5313 301.858C88.0448 302.365 122.775 302.564 131.38 302.411C131.564 302.411 131.564 302.28 131.38 302.273Z" fill="#263238"/>
<path d="M112.541 285.906C109.164 285.23 105.018 285.699 102.4 288.078C102.301 288.17 102.4 288.316 102.539 288.278C105.787 287.279 109.132 286.628 112.518 286.336C112.575 286.339 112.631 286.319 112.674 286.281C112.716 286.243 112.742 286.189 112.745 286.132C112.748 286.075 112.728 286.019 112.69 285.977C112.652 285.934 112.598 285.909 112.541 285.906Z" fill="#263238"/>
<path d="M114.967 287.441C111.59 286.766 107.444 287.234 104.826 289.614C104.719 289.706 104.826 289.844 104.965 289.813C108.213 288.814 111.558 288.163 114.944 287.871C115.001 287.874 115.057 287.854 115.1 287.816C115.142 287.778 115.168 287.725 115.171 287.668C115.174 287.611 115.154 287.555 115.116 287.512C115.078 287.47 115.024 287.444 114.967 287.441Z" fill="#263238"/>
<path d="M117.393 288.93C114.015 288.255 109.87 288.723 107.252 291.103C107.145 291.195 107.252 291.333 107.39 291.303C110.638 290.299 113.984 289.648 117.37 289.36C117.427 289.363 117.483 289.344 117.525 289.306C117.568 289.267 117.594 289.214 117.597 289.157C117.6 289.1 117.58 289.044 117.542 289.002C117.504 288.959 117.45 288.934 117.393 288.93Z" fill="#263238"/>
<path d="M103.636 304.253C100.911 304.2 98.2013 304.138 95.6142 304.069C85.9491 303.808 77.9576 303.409 77.19 302.925C76.4223 302.442 76.1152 295.248 75.9617 286.389C75.9617 286.259 75.9617 286.136 75.9617 286.013C75.9617 285.89 75.9617 285.814 75.9617 285.722H76.0001C80.491 288.884 96.3742 299.455 103.636 304.253Z" fill="#263238"/>
<path d="M110.845 285.906H74.0808C74.0808 285.906 81.4658 200.041 81.1741 198.544C80.8056 196.625 78.6331 187.935 75.7466 176.581C74.8408 173.027 73.8582 169.219 72.8448 165.265C70.1042 154.587 67.0796 142.911 64.4464 132.754C60.4929 117.539 57.3992 105.717 57.3992 105.717H88.5592C88.5592 105.717 92.1903 117.232 96.7733 132.202C104.235 156.537 114.2 190.031 115.198 198.176C116.787 211.318 110.845 285.906 110.845 285.906Z" fill="#455A64"/>
<path d="M109.217 279.626C103.598 279.511 105.21 279.465 99.5984 279.411C96.8502 279.411 78.7944 279.227 76.2227 279.657C76.1689 279.657 76.1689 279.757 76.2227 279.772C78.7944 280.194 96.8502 280.033 99.5984 280.002C105.21 279.949 103.598 279.903 109.217 279.787C109.235 279.782 109.25 279.771 109.26 279.757C109.271 279.742 109.277 279.725 109.277 279.707C109.277 279.689 109.271 279.671 109.26 279.657C109.25 279.642 109.235 279.632 109.217 279.626Z" fill="#263238"/>
<path d="M88.0909 193.293C86.8857 187.981 85.0816 182.776 83.4848 177.556C80.2913 166.962 77.0824 156.371 73.8582 145.782C72.2563 140.485 70.6391 135.193 69.0065 129.906C68.1876 127.235 67.3611 124.566 66.5269 121.899C65.7055 119.289 64.7766 116.702 64.0396 114.069C63.7402 113.002 63.5713 113.585 63.9552 114.952C64.7228 117.693 65.4905 120.433 66.2966 123.166C67.8831 128.586 69.4799 134.001 71.0869 139.41C74.2753 150.158 77.4919 160.918 80.7366 171.691C82.3538 177.085 83.9762 182.477 85.6036 187.866C86.4264 190.433 87.0904 193.048 87.5919 195.696C88.0278 198.463 88.1385 201.271 87.922 204.064C87.5689 209.691 86.9164 215.303 86.3867 220.914C85.857 226.526 85.3503 232.161 84.8513 237.803C83.8277 248.986 82.8042 260.176 81.7806 271.374C81.6475 272.791 81.5273 274.212 81.4198 275.634C81.3814 276.11 82.103 276.072 82.1491 275.634C83.362 264.572 84.2832 253.471 85.3196 242.386C86.356 231.301 87.3846 220.331 88.3903 209.307C88.6436 206.536 88.943 203.764 88.943 200.978C88.9501 198.392 88.6642 195.814 88.0909 193.293Z" fill="#263238"/>
<path d="M85.0202 105.709C82.863 122.444 78.7483 153.819 75.7466 176.581C68.7147 149.006 57.3992 105.717 57.3992 105.717L85.0202 105.709Z" fill="#263238"/>
<path d="M92.3286 304.76C90.5399 305.343 39.497 304.883 37.5625 303.624C36.7948 303.163 36.457 295.724 36.2728 286.735C36.2728 286.635 36.2728 286.543 36.2728 286.451C36.2728 284.593 36.2037 282.682 36.1884 280.747C36.1884 280.478 36.1884 280.217 36.1884 279.979C36.0655 266.983 37.0021 253.495 37.0021 253.495L70.3653 253.709L69.4364 279.941V280.985L69.2522 286.412V286.973C69.2522 286.973 88.7128 295.886 90.6934 297.49C92.674 299.095 94.1172 304.184 92.3286 304.76Z" fill="#DD6A57"/>
<path d="M92.3284 304.76C90.5397 305.343 39.4969 304.883 37.5624 303.624C36.7947 303.163 36.4569 295.724 36.2727 286.735C36.2727 286.635 36.2727 286.543 36.2727 286.451C36.2727 284.593 36.2036 282.682 36.1882 280.747C36.1882 280.478 36.1882 280.217 36.1882 279.979L69.4363 279.941V280.985L69.2521 286.412V286.973C69.2521 286.973 88.7127 295.886 90.6933 297.49C92.6739 299.094 94.1171 304.184 92.3284 304.76Z" fill="#EBEBEB"/>
<path d="M92.3285 304.76C90.5398 305.343 39.4969 304.883 37.5624 303.624C36.7947 303.163 36.4569 295.724 36.2727 286.735C36.2727 286.635 36.2727 286.543 36.2727 286.451L69.2137 286.382V286.942C69.2137 286.942 88.6743 295.855 90.6549 297.459C92.6355 299.064 94.1171 304.184 92.3285 304.76Z" fill="#FFC727"/>
<path d="M91.7682 302.795C83.1626 302.511 48.4406 302.15 39.9117 302.518C39.8426 302.518 39.8426 302.572 39.9117 302.572C48.4329 303.048 83.1626 303.125 91.7682 302.941C91.9448 302.91 91.9525 302.795 91.7682 302.795Z" fill="#263238"/>
<path d="M72.8678 286.497C69.4901 285.829 65.3446 286.313 62.7345 288.7C62.6347 288.792 62.7345 288.938 62.8727 288.9C66.1197 287.888 69.4651 287.224 72.8525 286.919C72.9021 286.912 72.9474 286.887 72.9808 286.85C73.0142 286.812 73.0335 286.764 73.0353 286.714C73.0371 286.664 73.0214 286.615 72.9908 286.575C72.9602 286.536 72.9167 286.508 72.8678 286.497Z" fill="#263238"/>
<path d="M75.3014 287.986C71.916 287.326 67.7705 287.81 65.1604 290.197C65.0606 290.289 65.1988 290.435 65.3063 290.397C68.553 289.384 71.8985 288.72 75.2861 288.416C75.3431 288.418 75.3986 288.397 75.4403 288.359C75.4821 288.32 75.5067 288.266 75.5087 288.209C75.5107 288.152 75.4901 288.096 75.4512 288.055C75.4123 288.013 75.3584 287.988 75.3014 287.986Z" fill="#263238"/>
<path d="M77.7272 289.483C74.3494 288.823 70.204 289.307 67.5939 291.694C67.4941 291.786 67.5939 291.924 67.7321 291.894C70.9781 290.878 74.3239 290.214 77.7119 289.913C77.7689 289.915 77.8244 289.894 77.8661 289.856C77.9079 289.817 77.9325 289.763 77.9345 289.706C77.9365 289.649 77.9158 289.593 77.877 289.552C77.8381 289.51 77.7842 289.485 77.7272 289.483Z" fill="#263238"/>
<path d="M87.5536 105.709C87.5536 105.709 86.832 120.617 83.4235 132.424C83.1548 133.399 82.8554 134.359 82.533 135.28C79.4079 136.54 76.4041 138.081 73.5588 139.886C73.5588 139.886 73.198 151.877 72.8449 165.219C72.4534 180.174 72.0772 196.855 72.1233 200.387C72.4457 213.621 70.4881 286.366 70.4881 286.366L33.7778 286.597C33.7778 286.597 40.4029 205.33 40.3568 200.479C40.2801 192.687 42.1225 158.257 43.5504 133.13C44.4178 117.654 45.1318 105.717 45.1318 105.717L87.5536 105.709Z" fill="#455A64"/>
<path d="M69.229 279.903C63.6173 279.81 65.2294 279.757 59.61 279.734C56.8618 279.734 38.806 279.642 36.242 280.079C36.1882 280.079 36.1882 280.179 36.242 280.194C38.8137 280.609 56.8694 280.371 59.6177 280.325C65.2294 280.248 63.6173 280.21 69.229 280.071C69.2514 280.071 69.2729 280.063 69.2887 280.047C69.3046 280.031 69.3135 280.009 69.3135 279.987C69.3135 279.965 69.3046 279.943 69.2887 279.927C69.2729 279.911 69.2514 279.903 69.229 279.903Z" fill="#263238"/>
<path d="M48.1872 111.044C47.5117 131.549 46.8054 152.054 45.8842 172.551C44.963 193.048 43.7347 213.683 42.0458 234.195C41.0862 245.657 40.188 261.778 38.9751 273.216C38.9751 273.293 39.0826 273.324 39.0903 273.216C41.7618 252.873 43.2511 227.724 44.5638 207.25C45.8765 186.776 46.7593 166.286 47.4502 145.789C47.8494 134.19 48.1412 122.598 48.4866 110.998C48.4482 110.876 48.1949 110.876 48.1872 111.044Z" fill="#263238"/>
<path d="M84.0606 134.389C80.4063 135.918 76.8924 137.762 73.5588 139.901C73.4283 139.978 73.5588 140.185 73.6663 140.116C77.2129 138.389 80.8364 136.731 84.2756 134.812C84.3255 134.78 84.3618 134.731 84.3774 134.674C84.393 134.617 84.3868 134.556 84.3599 134.503C84.3331 134.45 84.2875 134.409 84.2322 134.388C84.1769 134.367 84.1157 134.368 84.0606 134.389Z" fill="#263238"/>
<path d="M84.2678 121.746C84.0222 123.051 83.7074 124.348 83.4234 125.646C83.1393 126.943 82.9704 128.102 82.6557 129.307C82.3883 130.473 81.7945 131.538 80.9438 132.378C80.4678 132.816 79.9458 133.215 79.4084 133.622L78.5563 134.274L78.6484 133.745C78.7405 133.253 78.825 132.754 78.9018 132.263C79.086 131.158 79.2626 130.06 79.4314 128.954C79.7616 126.789 80.0686 124.594 80.5215 122.452C80.5266 122.434 80.5242 122.414 80.5149 122.398C80.5055 122.381 80.49 122.369 80.4716 122.364C80.4533 122.359 80.4337 122.361 80.4172 122.37C80.4006 122.38 80.3885 122.395 80.3834 122.414C79.846 124.54 79.2472 126.644 78.7789 128.793C78.5486 129.845 77.7272 135.034 77.6888 135.403C77.6504 135.771 77.6197 136.17 77.6121 136.547C77.5583 136.934 77.5583 137.326 77.6121 137.714C77.6121 137.806 77.7426 137.79 77.7886 137.714C77.9493 137.354 78.0603 136.974 78.1187 136.585C78.2197 136.216 78.3017 135.842 78.3644 135.464C78.3644 135.326 78.4104 135.188 78.4258 135.05C78.9401 134.735 79.4161 134.328 79.8921 133.983C80.368 133.637 80.9361 133.215 81.4274 132.831C82.3299 132.073 82.9805 131.058 83.2929 129.922C83.6049 128.695 83.8104 127.445 83.907 126.183C84.0682 124.709 84.191 123.227 84.3983 121.754C84.4444 121.692 84.2832 121.623 84.2678 121.746Z" fill="#263238"/>
<path d="M74.3189 67.2638C76.3533 72.9446 83.5311 85.6881 94.5395 95.7216C98.8001 99.5984 130.498 97.0497 133.637 95.8291C135.833 94.9693 139.932 78.9939 137.622 77.5507C133.292 74.8408 104.957 81.0897 103.752 80.4525C101.909 79.4699 89.7109 71.2941 81.8498 63.5252C76.1153 57.8598 70.9335 57.806 74.3189 67.2638Z" fill="#DD6A57"/>
<path d="M82.4639 84.0529L100.443 76.9135C100.443 76.9135 84.3217 63.0416 78.4106 60.301C71.7702 57.2303 71.6474 61.2836 73.9811 67.8396C76.3149 74.3955 82.4639 84.0529 82.4639 84.0529Z" fill="#37474F"/>
<path d="M96.6429 74.7256C95.9827 74.8715 90.3479 77.0287 89.135 77.5046C87.9221 77.9806 82.9245 79.9535 81.7116 80.5753C81.6994 80.5753 81.6876 80.5802 81.679 80.5888C81.6704 80.5975 81.6655 80.6092 81.6655 80.6214C81.6655 80.6336 81.6704 80.6453 81.679 80.654C81.6876 80.6626 81.6994 80.6674 81.7116 80.6674C83.0166 80.299 88.0526 78.3644 89.3039 77.8578C90.5552 77.3511 96.0825 75.1402 96.6583 74.7871C96.7273 74.7947 96.7273 74.718 96.6429 74.7256Z" fill="#263238"/>
<path d="M89.3959 81.297L82.4868 84.0529C82.4868 84.0529 76.3454 74.3879 74.0424 67.8396C72.3381 63.0493 71.9466 59.5794 74.4492 59.2723L89.3959 81.297Z" fill="#263238"/>
<path d="M40.9939 121.938C41.109 122.068 91.9523 122.398 92.4282 121.884C93.0808 121.116 81.7882 66.0202 76.5911 59.1955C75.4779 57.737 68.469 55.7487 64.4004 59.065C55.7563 66.1046 48.2791 90.2634 46.5135 97.5563C43.627 109.578 40.5717 121.462 40.9939 121.938Z" fill="#FFC727"/>
<path opacity="0.1" d="M76.8753 59.6254H63.7173C63.9322 59.4259 64.1472 59.2416 64.3621 59.065C64.4927 58.9585 64.6284 58.8586 64.769 58.7657H76.0769C76.2554 58.8853 76.4157 59.0301 76.5528 59.1956C76.6695 59.3318 76.7771 59.4754 76.8753 59.6254Z" fill="black"/>
<path opacity="0.1" d="M78.1036 62.0974H61.4834C61.7214 61.798 61.9594 61.5063 62.205 61.2299H77.7274C77.8503 61.4986 77.9731 61.7903 78.1036 62.0974Z" fill="black"/>
<path opacity="0.1" d="M79.0709 64.5693H59.7024C59.902 64.2699 60.0939 63.9859 60.2935 63.7018H78.7177L79.0709 64.5693Z" fill="black"/>
<path opacity="0.1" d="M79.8922 67.0335H58.1899C58.3588 66.7418 58.5277 66.4501 58.7043 66.166H79.6081C79.7079 66.4501 79.8384 66.7418 79.8922 67.0335Z" fill="black"/>
<path opacity="0.1" d="M80.6752 69.5054H56.8081C56.9616 69.2137 57.1075 68.922 57.2687 68.638H80.3758C80.4909 68.922 80.6061 69.2137 80.6752 69.5054Z" fill="black"/>
<path opacity="0.1" d="M81.3737 71.9774H55.6028C55.741 71.6856 55.8791 71.3939 56.025 71.1099H81.1511L81.3737 71.9774Z" fill="black"/>
<path opacity="0.1" d="M82.1415 74.4416H54.5051L54.8966 73.5741H81.8958C81.9419 73.8582 82.0187 74.1499 82.1415 74.4416Z" fill="black"/>
<path opacity="0.1" d="M82.771 76.9135H53.3997L53.7681 76.0461H82.5407L82.771 76.9135Z" fill="black"/>
<path opacity="0.1" d="M83.4234 79.4008H52.4016C52.5091 79.1091 52.6242 78.825 52.7471 78.5333H83.2008C83.2699 78.802 83.3467 79.0937 83.4234 79.4008Z" fill="black"/>
<path opacity="0.1" d="M84.0529 81.8497H51.4343C51.5418 81.558 51.6493 81.2739 51.7644 80.9822H83.8226C83.9071 81.2739 83.9838 81.558 84.0529 81.8497Z" fill="black"/>
<path opacity="0.1" d="M84.6747 84.3216H50.5515C50.6513 84.0299 50.7588 83.7458 50.8663 83.4541H84.4444C84.5289 83.7458 84.598 84.0069 84.6747 84.3216Z" fill="black"/>
<path opacity="0.1" d="M85.2736 86.7859H49.6995C49.7916 86.5018 49.8914 86.2101 49.9989 85.9261H85.0663L85.2736 86.7859Z" fill="black"/>
<path opacity="0.1" d="M85.8647 89.2578H48.8857L49.1621 88.3903H85.6575L85.8647 89.2578Z" fill="black"/>
<path opacity="0.1" d="M86.4403 91.7297H48.1179C48.2024 91.4457 48.2868 91.1539 48.3789 90.8622H86.2484C86.3098 91.1539 86.3789 91.4457 86.4403 91.7297Z" fill="black"/>
<path opacity="0.1" d="M87.0163 94.1939H47.3965L47.6421 93.3341H86.7937C86.8781 93.6258 86.9472 93.9099 87.0163 94.1939Z" fill="black"/>
<path opacity="0.1" d="M87.5689 96.6658H46.7285C46.7976 96.3972 46.8744 96.1054 46.9511 95.7984H87.377C87.4384 96.0901 87.5152 96.3741 87.5689 96.6658Z" fill="black"/>
<path opacity="0.1" d="M88.1216 99.1378H46.1296L46.3369 98.2703H87.9296C87.991 98.5927 88.0525 98.8537 88.1216 99.1378Z" fill="black"/>
<path opacity="0.1" d="M88.6591 101.602H45.531L45.7383 100.742H88.4748L88.6591 101.602Z" fill="black"/>
<path opacity="0.1" d="M89.181 104.074H44.9321L45.1394 103.206H88.9968C89.0505 103.498 89.1273 103.782 89.181 104.074Z" fill="black"/>
<path opacity="0.1" d="M89.7032 106.546H44.3335L44.5408 105.678H89.5266C89.588 105.97 89.6495 106.269 89.7032 106.546Z" fill="black"/>
<path opacity="0.1" d="M90.2097 109.01H43.7576L43.9648 108.143H90.0254C90.0945 108.434 90.1559 108.726 90.2097 109.01Z" fill="black"/>
<path opacity="0.1" d="M90.7087 111.482H43.1128C43.1896 111.198 43.2587 110.906 43.3277 110.615H90.5168C90.5859 110.876 90.655 111.198 90.7087 111.482Z" fill="black"/>
<path opacity="0.1" d="M91.1924 113.946H42.5447C42.6138 113.662 42.6752 113.378 42.752 113.079H91.0235C91.0772 113.386 91.1386 113.67 91.1924 113.946Z" fill="black"/>
<path opacity="0.1" d="M91.653 116.418H41.969C42.0304 116.134 42.0995 115.85 42.1686 115.551H91.4918C91.5456 115.85 91.5993 116.134 91.653 116.418Z" fill="black"/>
<path opacity="0.1" d="M92.1213 118.89H41.4546C41.5083 118.621 41.5697 118.33 41.6465 118.023H91.9677C91.9907 118.33 92.0368 118.614 92.1213 118.89Z" fill="black"/>
<path opacity="0.1" d="M92.4361 121.362H41.0017C41.0017 121.132 41.0708 120.84 41.1322 120.495H92.3516C92.3823 120.855 92.413 121.139 92.4361 121.362Z" fill="black"/>
<path d="M79.0476 123.381L87.1773 88.6283L90.3862 57.4683L107.244 61.9438L121.339 59.1188L133.936 64.5079L151.877 60.4469L139.74 93.3572L134.627 126.682L121.063 130.044L107.421 124.187L93.5951 128.709L79.0476 123.381Z" fill="#EBEBEB"/>
<path d="M93.5952 128.709L107.245 61.9438L121.339 59.1188L107.421 124.187L93.5952 128.709Z" fill="#DBDBDB"/>
<path d="M121.063 130.044L133.937 64.5079L151.877 60.4469L139.74 93.3572L134.628 126.682L121.063 130.044Z" fill="#DBDBDB"/>
<path d="M148.499 75.3398C149.06 78.6408 151.516 83.2469 151.133 85.7034C151.058 86.3129 150.789 86.8821 150.366 87.3272C149.943 87.7723 149.388 88.0696 148.783 88.1753C148.783 88.1753 150.825 90.0331 150.104 92.2056C149.735 93.3265 147.617 93.741 147.617 93.741C148.056 94.1865 148.365 94.7446 148.509 95.354C148.652 95.9634 148.625 96.6005 148.43 97.1955C147.824 98.7309 145.797 98.8691 145.797 98.8691C145.797 98.8691 146.611 101.065 145.498 102.4C143.249 105.118 129.822 101.326 129.146 95.7907C128.832 93.2113 132.056 94.3168 132.056 94.3168C132.056 94.3168 127.795 91.6069 128.509 88.8125C129.223 86.0182 133.33 87.7147 133.33 87.7147C133.33 87.7147 129.223 85.0509 130.259 82.2335C131.296 79.4162 135.157 81.6962 135.157 81.6962C135.157 81.6962 132.739 78.8327 134.029 76.8521C136.14 73.5895 141.652 79.9842 144.776 80.1224L146.381 75.4012L148.499 75.3398Z" fill="#DD6A57"/>
<path d="M149.697 80.2376C149.436 77.0594 151.862 76.3992 152.468 73.3976C153.144 70.0428 149.021 69.8048 146.442 75.2093L144.776 80.0994L149.697 80.2376Z" fill="#DD6A57"/>
<path d="M145.482 98.9151C145.493 98.9151 145.502 98.9192 145.51 98.9264C145.517 98.9336 145.521 98.9433 145.521 98.9535C145.521 98.9637 145.517 98.9735 145.51 98.9807C145.502 98.9879 145.493 98.9919 145.482 98.9919C140.573 98.8263 135.83 97.1746 131.879 94.2553C131.756 94.1555 131.879 93.9176 132.017 93.9943C136.244 96.2776 140.78 97.9352 145.482 98.9151Z" fill="#263238"/>
<path d="M147.678 93.764C147.732 93.764 147.678 93.8638 147.678 93.8562C142.267 93.6288 137.116 91.4689 133.161 87.7685C133.031 87.638 133.038 87.3846 133.207 87.5228C135.986 89.9103 143.249 92.9119 147.678 93.764Z" fill="#263238"/>
<path d="M134.95 81.3046C138.857 84.882 143.51 86.8473 148.584 88.2137C148.645 88.2137 148.584 88.3289 148.584 88.3289C145.92 88.3289 142.78 87.162 140.408 86.0259C138.189 85.0213 136.272 83.4515 134.85 81.4735C134.773 81.3584 134.865 81.2279 134.95 81.3046Z" fill="#263238"/>
<path d="M57.5758 63.602C48.6247 73.5204 31.2752 99.1301 34.6146 105.924C39.1055 115.075 56.148 128.724 62.251 130.958C64.8841 131.918 76.215 112.833 73.7661 111.083C70.849 108.987 54.6356 97.4489 54.7968 96.3665C54.9581 95.284 60.0554 82.817 62.8344 71.8008C66.0817 59.0574 62.4966 58.1515 57.5758 63.602Z" fill="#DD6A57"/>
<path d="M62.7116 109.286C62.7116 109.286 70.9487 107.068 76.3992 105.863C79.4699 105.195 84.7592 104.519 87.2158 105.049C90.893 105.817 105.771 111.513 104.473 115.152C103.299 118.445 91.1386 111.95 91.1386 111.95C91.1386 111.95 103.99 117.416 101.848 121.116C99.7059 124.817 86.9394 115.658 86.9394 115.658C86.9394 115.658 99.9899 121.569 97.2033 125.039C95.0768 127.665 83.0473 120.011 83.0473 120.011C83.0473 120.011 94.2477 125.177 92.1827 127.964C89.8796 131.035 78.3645 124.686 78.3645 124.686C71.9006 130.897 66.0817 132.063 62.2433 130.958C61.3144 130.682 62.7116 109.286 62.7116 109.286Z" fill="#DD6A57"/>
<path d="M86.8167 109.77C88.3521 110.361 89.8875 110.945 91.3767 111.666C92.866 112.388 94.3016 113.163 95.7064 114.015C97.5596 115.094 99.2828 116.382 100.842 117.854C97.879 115.436 92.6434 112.772 91.1618 112.05C89.6802 111.328 88.26 110.515 86.786 109.808C86.7477 109.808 86.7477 109.755 86.8167 109.77Z" fill="#263238"/>
<path d="M84.1067 115.052C86.0336 115.888 87.9451 116.641 89.8643 117.562C91.7835 118.483 93.4494 119.512 95.2381 120.556C95.3839 120.64 95.2918 120.686 95.1459 120.61C93.2958 119.642 91.5072 118.89 89.6494 117.938C87.7916 116.986 85.9568 115.973 84.0684 115.098L84.1067 115.052Z" fill="#263238"/>
<path d="M80.9747 119.166C83.9585 120.373 86.809 121.886 89.4805 123.68C89.611 123.765 89.4805 123.819 89.35 123.742C86.548 122.206 84.3678 120.94 80.9056 119.266C80.8826 119.243 80.9133 119.143 80.9747 119.166Z" fill="#263238"/>
<path d="M59.2416 85.2351L40.2646 81.4505C40.2646 81.4505 53.6299 64.8917 58.9345 61.1301C64.9071 56.9002 65.7669 60.8768 64.6537 67.7475C63.5406 74.6182 59.2416 85.2351 59.2416 85.2351Z" fill="#37474F"/>
<path d="M59.4105 81.9188C58.7734 81.6885 52.8699 80.4602 51.5802 80.2222C50.2905 79.9842 45.0319 78.9632 43.6808 78.825C43.6686 78.825 43.6569 78.8299 43.6483 78.8385C43.6396 78.8472 43.6348 78.8589 43.6348 78.8711C43.6348 78.8833 43.6396 78.895 43.6483 78.9037C43.6569 78.9123 43.6686 78.9172 43.6808 78.9172C44.9782 79.301 50.2828 80.3527 51.5879 80.6214C52.8929 80.8901 58.7657 81.9802 59.4259 82.0109C59.4566 82.0109 59.4566 81.9341 59.4105 81.9188Z" fill="#263238"/>
<path d="M70.4114 55.3725C66.2276 54.9042 61.1993 58.4893 64.9302 63.3333C68.6611 68.1774 72.607 69.1216 74.8179 68.446C77.4356 67.6246 78.4106 62.3046 77.7657 59.8327C77.1209 57.3608 73.9811 55.7717 70.4114 55.3725Z" fill="#455A64"/>
<path d="M73.8506 66.6957C72.1003 66.9568 66.9415 63.7555 65.0147 60.301C64.8842 60.063 65.7824 50.5054 65.744 48.5939C65.744 48.2024 77.7658 51.3652 77.7658 51.3652C77.1074 53.7634 76.7464 56.2333 76.691 58.7196C76.6981 58.9778 76.729 59.2347 76.7832 59.4873C76.7832 59.4873 76.7832 59.564 76.7832 59.6178C77.0595 61.1224 76.4147 66.3503 73.8506 66.6957Z" fill="#DD6A57"/>
<path d="M66.5115 48.6477C66.9951 51.5418 68.9373 59.6408 75.5701 59.7176C75.9811 59.7224 76.3918 59.6941 76.7983 59.6331V59.5026C76.7504 59.2493 76.7222 58.9926 76.7139 58.7349C76.7686 56.2492 77.1269 53.7794 77.781 51.3806C77.781 51.3806 69.1753 49.1083 66.5115 48.6477Z" fill="#263238"/>
<path d="M83.3237 30.0699C83.3237 30.0699 86.9472 32.4881 86.8781 36.6335C86.809 40.779 85.074 44.8016 84.6902 44.9398C84.3064 45.078 83.3237 30.0699 83.3237 30.0699Z" fill="#263238"/>
<path d="M66.9107 32.4343C64.7612 36.3265 64.4157 48.8089 66.8032 52.1099C70.2731 56.9002 77.2129 58.758 81.604 54.3055C85.857 49.9834 86.0182 33.7087 83.2315 30.5766C79.1244 25.9628 70.0812 26.6921 66.9107 32.4343Z" fill="#DD6A57"/>
<path d="M77.0902 42.3681C77.0902 42.3681 77.0288 42.3681 77.0288 42.4448C77.0288 43.2816 76.8829 44.2489 76.1152 44.5022V44.5483C77.0518 44.4485 77.2284 43.1665 77.0902 42.3681Z" fill="#263238"/>
<path d="M76.3686 41.4699C75.0252 41.324 74.8332 44.0263 76.0769 44.1644C77.3205 44.3026 77.5355 41.5927 76.3686 41.4699Z" fill="#263238"/>
<path d="M81.7192 42.6444C81.7192 42.606 81.7806 42.6444 81.7806 42.7212C81.6885 43.558 81.7346 44.5329 82.4716 44.863C82.4716 44.863 82.4716 44.9167 82.4716 44.9091C81.5427 44.7095 81.5043 43.4198 81.7192 42.6444Z" fill="#263238"/>
<path d="M82.5329 41.823C83.8841 41.823 83.7996 44.5252 82.5329 44.5329C81.2663 44.5406 81.3738 41.823 82.5329 41.823Z" fill="#263238"/>
<path d="M75.2323 40.564C75.5963 40.4893 75.9552 40.3919 76.307 40.2723C76.6988 40.222 77.063 40.0439 77.3434 39.7657C77.4146 39.6612 77.4494 39.5361 77.4425 39.4099C77.4355 39.2836 77.3872 39.1631 77.305 39.0671C77.1129 38.9011 76.8796 38.79 76.6297 38.7454C76.3798 38.7009 76.1224 38.7244 75.8848 38.8137C75.3749 38.92 74.9231 39.213 74.6181 39.6352C74.5533 39.7343 74.519 39.8502 74.5193 39.9686C74.5196 40.087 74.5545 40.2027 74.6199 40.3015C74.6852 40.4003 74.7779 40.4778 74.8868 40.5244C74.9956 40.5711 75.1157 40.5848 75.2323 40.564Z" fill="#263238"/>
<path d="M83.6768 39.9345C83.3199 39.8364 82.9688 39.7185 82.6251 39.5814C82.2368 39.5068 81.8837 39.3073 81.6194 39.0133C81.5533 38.9048 81.525 38.7773 81.5388 38.651C81.5527 38.5246 81.608 38.4064 81.6962 38.3148C81.8991 38.1622 82.1389 38.0661 82.3911 38.0364C82.6433 38.0068 82.8989 38.0445 83.1317 38.1459C83.632 38.283 84.064 38.6001 84.3447 39.0364C84.4058 39.1392 84.4351 39.2579 84.4289 39.3774C84.4227 39.4969 84.3813 39.6119 84.3099 39.7079C84.2385 39.8039 84.1403 39.8767 84.0276 39.917C83.915 39.9573 83.7929 39.9634 83.6768 39.9345Z" fill="#263238"/>
<path d="M75.5395 49.8836C75.7237 50.0986 75.908 50.3826 76.2074 50.4287C76.5213 50.4454 76.8352 50.3957 77.1286 50.2828C77.1286 50.2828 77.1823 50.2828 77.1286 50.3289C76.9973 50.4858 76.8256 50.6038 76.6321 50.6701C76.4386 50.7364 76.2307 50.7485 76.0308 50.7051C75.8663 50.6494 75.7215 50.5473 75.6139 50.411C75.5062 50.2748 75.4404 50.1103 75.4243 49.9374C75.4473 49.8683 75.5164 49.8529 75.5395 49.8836Z" fill="#263238"/>
<path d="M76.599 47.4347C76.7897 47.7819 77.0496 48.0863 77.3625 48.3293C77.6754 48.5722 78.0347 48.7485 78.4183 48.8473C78.7519 48.9318 79.0954 48.9705 79.4394 48.9624C79.5057 48.9702 79.5727 48.9702 79.639 48.9624H79.8232C79.8687 48.9565 79.9112 48.9362 79.9444 48.9044C79.9775 48.8727 79.9996 48.8311 80.0074 48.7859V48.6937V48.617C80.0765 47.9721 80.0842 46.9818 80.0842 46.9818C80.3068 47.12 81.4737 47.7495 81.4814 47.4117C81.6131 44.4956 81.4485 41.5737 80.9901 38.6909C80.9901 38.6705 80.982 38.651 80.9676 38.6366C80.9532 38.6222 80.9337 38.6141 80.9133 38.6141C80.8929 38.6141 80.8734 38.6222 80.859 38.6366C80.8446 38.651 80.8365 38.6705 80.8365 38.6909C80.6984 41.3854 81.0284 44.0646 80.9363 46.7899C80.5213 46.5634 80.077 46.3955 79.6159 46.2909C79.5238 46.2909 79.6159 48.1947 79.6159 48.4788C79.0824 48.495 78.5512 48.4033 78.0539 48.2094C77.5566 48.0155 77.1035 47.7233 76.7218 47.3503C76.6297 47.3119 76.5606 47.3656 76.599 47.4347Z" fill="#263238"/>
<path d="M79.0706 48.6093C78.6815 49.0443 78.1872 49.372 77.6351 49.5612C77.3335 49.6608 77.0078 49.6608 76.7062 49.5612C76.046 49.3386 76.0767 48.7244 76.2379 48.2101C76.3276 47.9409 76.4487 47.6832 76.5987 47.4424C77.2757 48.0872 78.1426 48.4964 79.0706 48.6093Z" fill="#263238"/>
<path d="M77.6505 49.5612C77.3488 49.6608 77.0232 49.6608 76.7216 49.5612C76.0614 49.3386 76.0921 48.7244 76.2533 48.2101C76.6063 48.2396 76.9382 48.3902 77.1929 48.6364C77.4475 48.8827 77.6092 49.2094 77.6505 49.5612Z" fill="#FF9CBD"/>
<path d="M65.4214 44.1798C66.9107 44.6788 68.7378 40.2032 69.2598 38.4836C69.7204 36.9483 70.3269 32.1273 70.4113 31.7972C70.4958 31.4671 76.8522 36.2343 80.6598 35.2133C84.4675 34.1923 87.0623 30.8529 87.1544 29.2715C87.2465 27.6901 82.6328 23.5677 78.5794 23.2683C74.5261 22.9689 68.9067 28.0125 68.9067 28.0125C69.5904 27.2807 70.2142 26.4952 70.7722 25.6634C70.7107 25.4792 68.0699 26.4311 67.5402 28.3273C67.5402 28.3273 68.116 26.0242 67.9164 25.9398C67.7168 25.8554 65.6134 27.859 66.0586 29.3943C66.0586 29.3943 63.6558 31.3826 63.3871 33.6166C63.1184 35.8505 63.6711 43.604 65.4214 44.1798Z" fill="#263238"/>
<path d="M83.3697 34.484C82.236 35.0607 81.0224 35.4643 79.7693 35.6816C78.3734 35.7588 76.9796 35.4953 75.7082 34.9139C74.4197 34.3788 73.227 33.6372 72.1769 32.7184C71.2557 31.9507 70.4343 30.9604 69.444 30.2465C69.1907 30.0622 68.8913 30.423 69.0371 30.6533C70.6673 33.0696 73.0339 34.8951 75.785 35.8582C77.0617 36.3081 78.4333 36.4187 79.7656 36.1792C81.0978 35.9396 82.345 35.3582 83.385 34.4917C83.385 34.4917 83.385 34.4764 83.3697 34.484Z" fill="#263238"/>
<path d="M74.8025 46.836C74.1164 46.724 73.4755 46.4218 72.9526 45.9638C72.4297 45.5058 72.0458 44.9102 71.8445 44.2449C71.6432 43.5795 71.6326 42.871 71.8139 42.1999C71.9951 41.5289 72.3611 40.9221 72.87 40.4486C73.3789 39.9751 74.0105 39.6539 74.6929 39.5214C75.3753 39.389 76.0812 39.4506 76.7303 39.6993C77.3794 39.9481 77.9458 40.3739 78.3649 40.9284C78.7841 41.483 79.0393 42.144 79.1015 42.8364C79.1847 43.818 78.8762 44.7927 78.2434 45.5478C77.6106 46.3028 76.7048 46.7769 75.7237 46.8667C75.4166 46.8951 75.1071 46.8848 74.8025 46.836ZM75.9156 39.9883C75.6605 39.9598 75.4031 39.9598 75.148 39.9883C74.332 40.0861 73.5841 40.4919 73.0573 41.1226C72.5304 41.7534 72.2643 42.5615 72.3133 43.3819C72.3623 44.2022 72.7227 44.9729 73.3209 45.5365C73.9191 46.1 74.71 46.4138 75.5318 46.4138C76.3537 46.4138 77.1445 46.1 77.7427 45.5365C78.3409 44.9729 78.7013 44.2022 78.7503 43.3819C78.7993 42.5615 78.5332 41.7534 78.0063 41.1226C77.4795 40.4919 76.7316 40.0861 75.9156 39.9883Z" fill="#FFC727"/>
<path d="M83.3237 47.1584C81.9189 46.9281 80.8825 45.2852 80.967 43.32C80.9883 42.3919 81.3027 41.4944 81.8652 40.7559C82.0844 40.4226 82.3865 40.1519 82.7418 39.9704C83.0971 39.7889 83.4935 39.7029 83.8921 39.7207C84.2907 39.7385 84.6778 39.8595 85.0156 40.072C85.3533 40.2844 85.63 40.5809 85.8187 40.9325C86.3103 41.7166 86.5464 42.634 86.4942 43.558C86.4021 45.6077 85.0894 47.2198 83.5617 47.1507L83.3237 47.1584ZM84.0914 40.2493H83.8995C83.582 40.2475 83.2688 40.3227 82.9867 40.4685C82.7046 40.6142 82.462 40.8261 82.2797 41.086C81.7914 41.7556 81.5231 42.5604 81.512 43.3891C81.4352 45.1547 82.3872 46.644 83.6385 46.6978C84.8898 46.7515 85.9415 45.3543 86.049 43.6271C86.0965 42.8166 85.8898 42.0115 85.4579 41.324C85.3205 41.0516 85.1236 40.8135 84.8817 40.6275C84.6399 40.4414 84.3593 40.3122 84.0607 40.2493H84.0914Z" fill="#FFC727"/>
<path d="M78.9556 43.2662L78.6562 42.8671C79.2397 42.4218 80.5678 41.8384 81.4276 42.8671L81.0514 43.1895C80.2837 42.2683 79.0094 43.2202 78.9556 43.2662Z" fill="#FFC727"/>
<path d="M63.103 43.6578L62.6731 43.4121C62.7882 43.2125 63.8323 41.4469 64.9761 41.3164C66.12 41.1859 71.8852 41.9382 72.2 41.9842L72.1309 42.4756C69.7809 42.1195 67.4127 41.8965 65.0375 41.8077C64.2699 41.8921 63.3794 43.1741 63.103 43.6578Z" fill="#FFC727"/>
<path d="M67.402 42.775C67.402 42.775 65.4214 38.3531 63.4638 38.9903C61.5062 39.6275 62.4812 45.6691 64.4081 46.836C64.646 47.0061 64.9161 47.126 65.2018 47.1884C65.4876 47.2509 65.783 47.2546 66.0703 47.1993C66.3575 47.144 66.6305 47.0309 66.8726 46.8668C67.1147 46.7027 67.321 46.4911 67.4788 46.2449L67.402 42.775Z" fill="#DD6A57"/>
<path d="M63.7863 40.7099C63.7863 40.7099 63.7403 40.7483 63.7863 40.7636C65.1298 41.6311 65.6441 43.1281 65.9128 44.602C65.8558 44.4396 65.7642 44.2915 65.6444 44.1679C65.5246 44.0443 65.3795 43.9482 65.2189 43.8861C65.0583 43.8241 64.8862 43.7977 64.7144 43.8086C64.5427 43.8195 64.3753 43.8676 64.2239 43.9495V44.0416C64.4949 44.0093 64.7692 44.0613 65.0095 44.1904C65.2499 44.3195 65.4447 44.5195 65.5674 44.7632C65.764 45.1765 65.9184 45.6086 66.028 46.0529C66.074 46.1988 66.3197 46.1681 66.2966 46.0529C66.6958 44.1568 65.7439 41.278 63.7863 40.7099Z" fill="#263238"/>
<path d="M133.522 32.158C133.188 35.3581 131.972 38.4025 130.008 40.9512C128.044 43.4999 125.411 45.4527 122.401 46.5914C119.392 47.7301 116.126 48.01 112.967 47.3998C109.808 46.7895 106.88 45.3133 104.512 43.1357L95.8291 44.4178L100.174 36.9022C99.0841 34.259 98.675 31.3845 98.9843 28.5422C99.4637 23.9612 101.743 19.7583 105.322 16.8581C108.9 13.9578 113.484 12.5979 118.065 13.0774C122.646 13.5568 126.849 15.8365 129.749 19.4148C132.649 22.9931 134.009 27.5769 133.53 32.158H133.522Z" fill="white"/>
<path d="M133.522 32.158C133.189 35.3572 131.977 38.4019 130.021 40.9555C129.536 41.5924 129.01 42.1976 128.448 42.7673C127.87 43.3181 127.257 43.831 126.613 44.3026C125.331 45.2639 123.92 46.0393 122.421 46.6056C120.924 47.1984 119.35 47.5733 117.746 47.7188C116.945 47.7956 116.139 47.811 115.336 47.7648C114.53 47.7484 113.726 47.6663 112.933 47.5192C109.735 46.9435 106.761 45.4895 104.343 43.32L104.55 43.3891L95.8675 44.7172L95.238 44.8169L95.5605 44.2565L99.8825 36.7333V37.0327C98.8647 34.5433 98.4316 31.8535 98.6166 29.1705C98.8016 26.4874 99.5997 23.8825 100.95 21.5563C102.304 19.2407 104.164 17.2618 106.392 15.7681C108.616 14.2947 111.144 13.3442 113.787 12.9879C116.43 12.6316 119.12 12.8787 121.654 13.7107C124.165 14.5612 126.452 15.9648 128.348 17.8178C130.237 19.6624 131.684 21.9108 132.58 24.3944C133.476 26.8779 133.798 29.5321 133.522 32.158ZM133.522 32.158C133.795 29.5446 133.465 26.9033 132.558 24.4373C131.651 21.9713 130.19 19.746 128.289 17.9327C126.387 16.1193 124.095 14.766 121.589 13.9769C119.083 13.1878 116.429 12.9838 113.831 13.3806C111.257 13.7663 108.804 14.7352 106.661 16.2133C104.539 17.7028 102.765 19.6359 101.464 21.8788C100.186 24.1308 99.4331 26.642 99.2607 29.2254C99.1024 31.8078 99.5193 34.393 100.481 36.7947L100.55 36.9483L100.466 37.0864L96.0902 44.5866L95.7831 44.126L104.473 42.9054H104.596L104.68 42.9899C107 45.1613 109.879 46.6422 112.994 47.2658C113.771 47.4281 114.559 47.5257 115.351 47.5576C116.143 47.6151 116.939 47.6151 117.731 47.5576C119.306 47.4336 120.857 47.0899 122.337 46.5365C123.836 45.9969 125.246 45.2362 126.521 44.2796C127.164 43.8061 127.776 43.2934 128.356 42.7442C128.919 42.1782 129.447 41.5783 129.937 40.9479C131.921 38.4051 133.162 35.3627 133.522 32.158Z" fill="#263238"/>
<path d="M114.223 40.2493L106.807 32.7491L109.294 30.2848L113.624 34.6683L122.629 20.5583L125.584 22.4392L114.223 40.2493Z" fill="#FFC727"/>
</svg>
